<?xml version="1.0" standalone="no"?>
<!DOCTYPE svg PUBLIC "-//W3C//DTD SVG 1.1//EN" "http://www.w3.org/Graphics/SVG/1.1/DTD/svg11.dtd" >
<svg xmlns="http://www.w3.org/2000/svg">
<metadata>
This is a custom SVG font generated by IcoMoon.
<iconset grid="16"></iconset>
</metadata>
<defs>
<font id="icomoon" horiz-adv-x="512" >
<font-face units-per-em="512" ascent="480" descent="-32" />
<missing-glyph horiz-adv-x="512" />
<glyph class="hidden" unicode="&#xf000;" d="M0,480L 512 -32L0 -32 z" horiz-adv-x="0" />
<glyph unicode="&#xe000;" d="M 512,192L 416,288L 416,384L 352,384L 352,352L 256,448L0,192L 64,192L 64,0L 224,0L 224,128L 288,128L 288,0L 448,0L 448,192 	z" data-tags="home, house, building" />
<glyph unicode="&#xe002;" d="M 256,448L0,192l 48-48l 48,48l 32-192l 96,0 l0,96 l 64,0 l0-96 l 96,0 l 32,192l 48-48l 48,48L 256,448z M 256,242.746
		c-24.994,0-45.256,20.26-45.256,45.254s 20.262,45.255, 45.256,45.255c 24.992,0, 45.255-20.262, 45.255-45.255
		C 301.255,263.006, 280.992,242.746, 256,242.746z" data-tags="home, house, building" />
<glyph unicode="&#xe001;" d="M 448,352L 448,416 L0,416 l0-352 c0-17.673, 14.327-32, 32-32l 432,0 c 26.511,0, 48,21.489, 48,48L 512,352 L 448,352 z M 416,64L 32,64 L 32,384 l 384,0 L 416,64 zM 64,320L 384,320L 384,288L 64,288zM 256,256L 384,256L 384,224L 256,224zM 256,192L 384,192L 384,160L 256,160zM 256,128L 352,128L 352,96L 256,96zM 64,256L 224,256L 224,96L 64,96z" data-tags="newspaper, pager" />
<glyph unicode="&#xe13b;" d="M 488,456c-32,32-64,32-96,0l-8-8l 96-96l 8,8C 520,392, 520,424, 488,456zM 32,96L0-32l 128,32l 320,320l-96,96L 32,96z M 128,64l-32,32l 256,256l 32-32L 128,64z" data-tags="pencil, writing, edit, article, blog" />
<glyph unicode="&#xe003;" d="M 192,160L 256,192L 480,416L 448,448L 224,224 	zM 144.65,36.451c-15.816,33.364-42.833,60.381-76.198,76.198l 38.99,129.968L 192,288L 384,480l-96,0 L 96,288L0-32l 320,96l 192,192
		l0,96 L 320,160l-45.383-84.559" data-tags="pencil, writing, edit, article, blog" />
<glyph unicode="&#xe004;" d="M 447.97,163.249c-0.006,0.353-0.015,0.701-0.021,1.053c-0.016,0.714-0.035,1.427-0.059,2.14C 442.875,324.266, 256,480, 256,480
		S 69.123,324.266, 64.11,166.439c-0.022-0.715-0.044-1.426-0.060-2.141c-0.007-0.352-0.015-0.701-0.021-1.053
		c-0.018-1.080-0.028-2.162-0.028-3.248c0-1.184, 0.014-2.361, 0.035-3.539c 0.002-0.098, 0.003-0.195, 0.007-0.293
		C 66.082,51.899, 151.241-32, 256-32c 104.758,0, 189.916,83.899, 191.959,188.168c 0.002,0.098, 0.004,0.196, 0.005,0.293
		c 0.021,1.178, 0.036,2.357, 0.036,3.539C 448,161.086, 447.988,162.168, 447.97,163.249z M 383.975,157.63l-0.004-0.203
		c-0.659-33.643-14.266-65.167-38.313-88.774C 321.587,45.017, 289.743,32, 256,32c-6.231,0-12.397,0.447-18.462,1.319
		c 69.528,41.423, 116.108,117.352, 116.108,204.161c0,9.728-0.59,19.317-1.726,28.74c 20.136-36.97, 31.032-71.4, 32.001-101.813
		l 0.002-0.072c 0.016-0.474, 0.026-0.946, 0.039-1.422l 0.014-0.724C 383.99,161.461, 384,160.73, 384,160
		C 384,159.208, 383.99,158.419, 383.975,157.63z" data-tags="droplet, colors, water" />
<glyph unicode="&#xe005;" d="M0,416l0-384 l 512,0 L 512,416 L0,416 z M 480,64l-32,0 l-96,144l-64-48L 160,320L 64,64L 32,64 L 32,384 l 448,0 L 480,64 zM 352,304A48,48 10260 1 1 448,304A48,48 10260 1 1 352,304z" data-tags="pictures, images, photos" />
<glyph unicode="&#xe006;" d="M 416,192.113c-32,0-64-32.113-96-32.113s-32,128-96,128S 96,224, 64,96c0,0, 352,0, 384,0
		C 448,95.999, 448,192.113, 416,192.113zM0,384l0-352 l 512,0 L 512,384 L0,384 z M 480,64L 32,64 L 32,352 l 448,0 L 480,64 zM 352,272A48,48 10260 1 1 448,272A48,48 10260 1 1 352,272z" data-tags="picture, image, photo" />
<glyph unicode="&#xe007;" d="M 154.007,208A101.993,101.993 10260 1 1 357.993,208A101.993,101.993 10260 1 1 154.007,208zM 480,352L 368,352 c-8,32-16,64-48,64L 192,416 c-32,0-40-32-48-64L 32,352 c-17.6,0-32-14.4-32-32l0-256 c0-17.6, 14.4-32, 32-32l 448,0 
		c 17.6,0, 32,14.4, 32,32L 512,320 C 512,337.6, 497.6,352, 480,352z M 256,64c-79.529,0-144,64.471-144,144c0,79.529, 64.471,144, 144,144
		c 79.529,0, 144-64.471, 144-144C 400,128.471, 335.53,64, 256,64z M 480,288l-64,0 l0,32 l 64,0 L 480,288 z" data-tags="camera, photos, images, pictures" />
<glyph unicode="&#xe008;" d="M 155.755,448.451l-13.090-340.294c-17.465,8.962-39.377,12.84-62.368,9.578c-49.574-7.021-85.271-44.418-79.729-83.517
	c 5.543-39.102, 50.223-65.101, 99.795-58.078c 43.996,6.235, 77.021,36.395, 80.022,70.43l 0.010-0.019c 0.006,0.077, 0.011,0.193, 0.018,0.28
	c 0.073,0.865, 0.115,1.741, 0.147,2.611c 1.846,35.143, 13.148,302.082, 13.148,302.082l 278.355,28.679l-12.572-240.41
	c-17.863,9.942-40.822,14.371-64.964,10.95c-49.574-7.028-85.268-44.417-79.726-83.521c 5.541-39.098, 50.221-65.102, 99.795-58.071
	c 44.933,6.36, 78.41,37.682, 80.166,72.604l 0.021,0.021C 495.742,97.752, 512,473.005, 512,473.005L 155.755,448.451z" data-tags="music, song, audio, sound" />
<glyph unicode="&#xe009;" d="M 490.594,399.946C 418.778,410.271, 339.428,416, 256.001,416c-83.43,0-162.778-5.729-234.597-16.054
	C 7.639,346.083,0,286.571,0,224c0-62.57, 7.639-122.083, 21.404-175.945C 93.223,37.729, 172.572,32, 256.001,32
	c 83.427,0, 162.776,5.729, 234.593,16.055C 504.36,101.917, 512,161.43, 512,224C 512,286.571, 504.36,346.083, 490.594,399.946z
	 M 192.001,128L 192.001,320 l 160-96L 192.001,128z" data-tags="play, video, movie" />
<glyph unicode="&#xe00a;" d="M0,416l0-384 l 512,0 L 512,416 L0,416 z M 96,64L 32,64 l0,64 l 64,0 L 96,64 z M 96,192L 32,192 l0,64 l 64,0 L 96,192 z M 96,320L 32,320 L 32,384 l 64,0 L 96,320 z M 384,64L 128,64 L 128,384 l 256,0 L 384,64 z
		 M 480,64l-64,0 l0,64 l 64,0 L 480,64 z M 480,192l-64,0 l0,64 l 64,0 L 480,192 z M 480,320l-64,0 L 416,384 l 64,0 L 480,320 zM 192,320L 192,128L 320,224 	z" data-tags="film, video, movie, tape, play" />
<glyph unicode="&#xe00b;" d="M 489.42,351.874c-5.294,0-10.729-1.861-15.718-5.383L 384,283.184L 384,336 c0,26.4-21.6,48-48,48L 48,384 c-26.4,0-48-21.6-48-48l0-224 
	c0-26.4, 21.6-48, 48-48l 288,0 c 26.4,0, 48,21.6, 48,48l0,52.815 l 89.701-63.307c 4.989-3.521, 10.424-5.382, 15.717-5.383
	c 0.001,0, 0.001,0, 0.003,0c 7.044,0, 13.477,3.248, 17.646,8.911c 3.228,4.385, 4.934,10.027, 4.934,16.318L 512.001,326.645 
	C 512,343.208, 500.641,351.874, 489.42,351.874z" data-tags="camera, film, video, record, _new" />
<glyph unicode="&#xe00c;" d="M 408.785,305.925C 312.002,377.854, 278.652,435.434, 256.002,479.999l0,0C 256,479.999, 256,480, 256,480l0-0.001 
	c-22.648-44.565-56-102.146-152.783-174.074c-165.018-122.643-9.688-293.834, 126.879-199.612
	c-8.898-58.465-39.265-101.086-70.104-119.441L 159.992-32 l 96.008,0 l 96.008,0 l0,18.87 c-30.841,18.354-61.205,60.977-70.106,119.442
	C 418.47,12.089, 573.802,183.282, 408.785,305.925z" data-tags="spades, bet, game, gamble, cards" />
<glyph unicode="&#xe00d;" d="M 393.416,283.614c-29.516,0-56.043-12.298-74.926-32.347c-7.998-8.492-21.881-18.556-36.9-27.405
	c 7.055,26.934, 29.338,60.85, 44.814,75.728c 19.82,19.085, 31.992,45.915, 31.992,75.75C 358.399,432.787, 312.658,479.388, 256.002,480
	c-56.66-0.611-102.398-47.213-102.398-104.659c0-29.836, 12.172-56.665, 31.993-75.75c 15.477-14.878, 37.76-48.794, 44.814-75.728
	c-15.021,8.85-28.903,18.913-36.9,27.405c-18.884,20.049-45.41,32.347-74.925,32.347c-57.193,0-103.54-46.832-103.54-104.664
	c0-57.819, 46.346-104.669, 103.54-104.669c 29.521,0, 56.041,12.678, 74.925,32.726c 8.402,8.936, 23.222,20.069, 39.146,29.316
	c-1.501-73.846-36.766-128.084-72.659-149.453L 159.998-32 l 96.005,0 l 96.002,0 l0,18.87 c-35.896,21.368-71.16,75.608-72.66,149.453
	c 15.926-9.247, 30.744-20.384, 39.146-29.316c 18.883-20.047, 45.404-32.726, 74.926-32.726c 57.193,0, 103.539,46.85, 103.539,104.669
	C 496.955,236.782, 450.61,283.614, 393.416,283.614z" data-tags="clubs, bet, game, gamble, cards" />
<glyph unicode="&#xe00e;" d="M 256,480L 96,224L 256-32L 416,224 z" data-tags="diamonds, bet, game, gamble, cards" />
<glyph unicode="&#xe00f;" d="M 224,288L 96-32l 48.596,0 L 256,65.479L 367.406-32L 416-32 L 288,288L 224,288 z M 149.024,14.395l 42.871,107.179l 39.81-34.833
			L 149.024,14.395z M 362.978,14.396l-82.68,72.344l 39.809,34.833L 362.978,14.396z M 256,108l-51.507,45.068L 245.665,256l 20.67,0 
			l 41.173-102.932L 256,108zM 366.871,415.999C 377.764,397.172, 384,375.314, 384,352s-6.236-45.172-17.129-63.999l 27.72-16
			C 408.204,295.535, 416,322.856, 416,352s-7.796,56.465-21.409,79.999L 366.871,415.999zM 145.128,288.001C 134.238,306.828, 128,328.686, 128,352s 6.236,45.172, 17.128,63.999L 117.41,431.998
			C 103.796,408.464, 96,381.144, 96,352s 7.796-56.464, 21.41-79.999L 145.128,288.001zM 34.252,480C 12.47,442.345,0,398.629,0,352s 12.47-90.345, 34.252-127.999l 27.719,16C 42.911,272.948, 32,311.199, 32,352
			S 42.911,431.052, 61.971,464L 34.252,480zM 512,352c0,46.63-12.47,90.346-34.253,128l0,0L 450.030,464C 469.090,431.052, 480,392.801, 480,352s-10.91-79.053-29.971-112
			l 27.718-16l0,0C 499.531,261.654, 512,305.37, 512,352zM 224,352A32,32 10260 1 1 288,352A32,32 10260 1 1 224,352z" data-tags="broadcast, podcast, stream, live, wifi" />
<glyph unicode="&#xe010;" d="M 240,128c 44.183,0, 80,35.817, 80,80L 320,400 c0,44.183-35.817,80-80,80s-80-35.817-80-80l0-192 C 160,163.817, 195.818,128, 240,128zM 352,256l0-48 c0-61.855-50.145-112-112-112c-61.856,0-112,50.145-112,112l0,48 L 96,256 l0-48 c0-74.119, 56.002-135.15, 128-143.11L 224,0 
		l-64,0 l0-32 l 64,0 l 32,0 l 64,0 l0,32 l-64,0 l0,64.89 c 71.997,7.96, 128,68.991, 128,143.11l0,48 L 352,256 z" data-tags="mic, microphone, voice" />
<glyph unicode="&#xe011;" d="M 384,416c-49.179,0-94.030-18.498-128-48.905C 222.031,397.502, 177.179,416, 128,416S 33.969,397.502,0,367.096l0-8.596 l0-38.49 l0-192.004 
	L0,87.5 l0-6.576 c 0.342-0.306, 0.676-0.62, 1.020-0.924c 8.209-7.244, 17.040-13.798, 26.406-19.569c 9.43,7.631, 19.739,14.216, 30.761,19.569
	c 21.098,10.248, 44.783,16, 69.813,16s 48.716-5.752, 69.813-16c 11.021-5.354, 21.331-11.938, 30.761-19.569
	c 1.842-1.491, 3.65-3.022, 5.424-4.592c 8.108-7.178, 15.488-15.159, 22.002-23.83c 6.515,8.671, 13.894,16.652, 22.002,23.83
	c 1.773,1.569, 3.581,3.101, 5.424,4.592c 9.43,7.631, 19.739,14.216, 30.761,19.569c 21.098,10.248, 44.783,16, 69.813,16
	s 48.716-5.752, 69.813-16c 11.021-5.354, 21.331-11.938, 30.761-19.569c 9.366,5.771, 18.196,12.325, 26.405,19.569
	c 0.344,0.304, 0.679,0.618, 1.021,0.924L 512,87.5 l0,40.506 L 512,320.010 L 512,358.5 l0,8.596 C 478.031,397.502, 433.179,416, 384,416z M 128,128
	c-34.976,0-67.758-9.365-96-25.705L 32,352.007 C 58.741,372.095, 91.98,384, 128,384c 36.025,0, 69.258-11.919, 96-32.013l0-249.692 
	C 195.758,118.635, 162.976,128, 128,128z M 384,128c-34.976,0-67.758-9.365-96-25.705L 288,351.987 C 314.742,372.081, 347.976,384, 384,384
	c 36.021,0, 69.259-11.906, 96-31.994l0-249.712 C 451.758,118.635, 418.976,128, 384,128z" data-tags="book, reading" />
<glyph unicode="&#xe012;" d="M 451.716,380.285l-71.432,71.431C 364.728,467.272, 334,480, 312,480L 72,480 C 50,480, 32,462, 32,440l0-432 c0-22, 18-40, 40-40l 368,0 c 22,0, 40,18, 40,40
	L 480,312 C 480,334, 467.272,364.729, 451.716,380.285z M 429.089,357.657c 1.565-1.565, 3.125-3.487, 4.64-5.657L 352,352 L 352,433.728 
	c 2.17-1.515, 4.092-3.075, 5.657-4.64L 429.089,357.657z M 448,8c0-4.336-3.664-8-8-8L 72,0 c-4.336,0-8,3.664-8,8L 64,440 c0,4.336, 3.664,8, 8,8
	l 240,0 c 2.416,0, 5.127-0.305, 8-0.852L 320,320 l 127.148,0 c 0.547-2.873, 0.852-5.583, 0.852-8L 448,8 z" data-tags="file, new, paper" />
<glyph unicode="&#xe013;" d="M 352,480L 32,480 l0-512 l 448,0 L 480,352 L 352,480z M 448,0L 64,0 L 64,448 l 288,0 l0-96 l 96,0 L 448,0 z" data-tags="file, new, paper" />
<glyph unicode="&#xe014;" d="M 256-32L 256,192L 32,192 	zM 32,480L 32,224L 288,224L 288-32L 480-32L 480,480 	z" data-tags="new, page, file" />
<glyph unicode="&#xe015;" d="M 224,288L 416,288L 416,256L 224,256zM 224,224L 416,224L 416,192L 224,192zM 224,160L 416,160L 416,128L 224,128zM 224,96L 352,96L 352,64L 224,64zM 480,384l-96,0 L 384,448 c0,17.6-14.4,32-32,32L 32,480 C 14.4,480,0,465.6,0,448l0-352 c0-17.6, 14.4-32, 32-32l 96,0 l0-64 c0-17.6, 14.4-32, 32-32l 320,0 
		c 17.6,0, 32,14.4, 32,32L 512,352 C 512,369.6, 497.6,384, 480,384z M 128,352l0-240 L 48,112 L 48,432 l 288,0 l0-48 L 160,384 C 142.4,384, 128,369.6, 128,352z M 464,16L 176,16 
		L 176,336 l 288,0 L 464,16 z" data-tags="copy, new, papers" />
<glyph unicode="&#xe016;" d="M 492.25,352L 19.75,352 c-13.2,0-21.882-10.59-19.293-23.534l 58.836-272.932C 61.882,42.59, 74.8,32, 88,32l 336,0 
		c 13.2,0, 26.118,10.59, 28.707,23.534l 58.836,272.932C 514.132,341.41, 505.45,352, 492.25,352zM 448,392c0,13.255-10.745,24-24,24L 208,416 l-16,32L 88,448 c-13.255,0-24-10.745-24-24l0-56 l 384,0 L 448,392 z" data-tags="folder, directory, category, archive" />
<glyph unicode="&#xe017;" d="M 492.25,352L 448,352 L 448,392 c0,13.255-10.745,24-24,24L 208,416 l-16,32L 88,448 c-13.255,0-24-10.745-24-24l0-72 L 19.75,352 
	c-13.2,0-21.882-10.59-19.293-23.534l 58.836-272.932C 61.882,42.59, 74.8,32, 88,32l 336,0 c 13.2,0, 26.118,10.59, 28.707,23.534
	l 58.836,272.932C 514.132,341.41, 505.45,352, 492.25,352z M 96,416l 76.223,0 l 16-32L 416,384 l0-32 L 96,352 L 96,416 z M 421.797,64L 90.203,64 L 35.017,320l 441.966,0 
	L 421.797,64z" data-tags="folder, directory, category, archive" />
<glyph unicode="&#xe018;" d="M 288,480L0,192l 224-224l 288,288L 512,480 L 288,480 z M 416,337.6c-25.626,0-46.399,20.773-46.399,46.4S 390.374,430.4, 416,430.4
	s 46.4-20.773, 46.4-46.4S 441.626,337.6, 416,337.6z" data-tags="tag, price" />
<glyph unicode="&#xe019;" d="M 64,16A48,48 8460 1 1 160,16A48,48 8460 1 1 64,16zM 384,16A48,48 8460 1 1 480,16A48,48 8460 1 1 384,16zM 480,224L 480,416 L 64,416 C 64,451.346, 35.347,480,0,480l0-32 c 17.645,0, 32-14.355, 32-32l 24.037-206.027C 41.39,198.244, 32,180.223, 32,160
		c0-35.347, 28.654-64, 64-64l 384,0 l0,32 L 96,128 c-17.673,0-32,14.327-32,32c0,0.11, 0.007,0.218, 0.008,0.328L 480,224z" data-tags="cart, ecommerce, shopping, products, purchase, buy, store" />
<glyph unicode="&#xe01a;" d="M 406.494,288L 317.573,403.765C 319.134,407.535, 320,411.666, 320,416c0,17.673-14.326,32-32,32c-17.673,0-32-14.327-32-32
	s 14.327-32, 32-32c 1.421,0, 2.816,0.102, 4.188,0.282L 366.144,288L 145.857,288 l 73.956,96.282C 221.184,384.102, 222.58,384, 224,384
	c 17.673,0, 32,14.327, 32,32s-14.327,32-32,32s-32-14.327-32-32c0-4.334, 0.866-8.465, 2.427-12.234L 105.506,288L0,288 l0-64 l 32,0 l 32-256l 384,0 
	l 32,256l 32,0 l0,64 L 406.494,288 z M 160,32L 96,32 l0,64 l 64,0 L 160,32 z M 160,160L 96,160 l0,64 l 64,0 L 160,160 z M 288,32l-64,0 l0,64 l 64,0 L 288,32 z M 288,160l-64,0 l0,64 l 64,0 L 288,160 z
	 M 416,32l-64,0 l0,64 l 64,0 L 416,32 z M 416,160l-64,0 l0,64 l 64,0 L 416,160 z" data-tags="basket, cart, ecommerce, shopping, products, purchase, buy, store" />
<glyph unicode="&#xe01b;" d="M 192,480L 32,480 C 14.4,480,0,465.6,0,448l0-160 c0-17.6, 14.398-32, 32-32l 160,0 c 17.6,0, 32,14.4, 32,32L 224,448 C 224,465.6, 209.6,480, 192,480z M 192,352
		L 32,352 L 32,384 l 160,0 L 192,352 zM 480,480L 320,480 c-17.602,0-32-14.4-32-32l0-448 c0-17.6, 14.398-32, 32-32l 160,0 c 17.6,0, 32,14.4, 32,32L 512,448 C 512,465.6, 497.6,480, 480,480z
		 M 480,160L 320,160 l0,32 l 160,0 L 480,160 z M 480,256L 320,256 l0,32 l 160,0 L 480,256 zM 192,192L 32,192 C 14.4,192,0,177.6,0,160l0-160 c0-17.6, 14.398-32, 32-32l 160,0 c 17.6,0, 32,14.4, 32,32L 224,160 C 224,177.6, 209.6,192, 192,192
		z M 192,64l-64,0 l0-64 L 96,0 l0,64 L 32,64 l0,32 l 64,0 l0,64 l 32,0 l0-64 l 64,0 L 192,64 z" data-tags="calculate, sum, calculator, compute" />
<glyph unicode="&#xe01c;" d="M 256,480C 114.615,480,0,365.385,0,224s 114.615-256, 256-256s 256,114.615, 256,256S 397.385,480, 256,480z M 160,224
	c0,53.020, 42.98,96, 96,96s 96-42.98, 96-96s-42.98-96-96-96S 160,170.98, 160,224z M 462.99,138.262L 462.99,138.262l-88.71,36.745
	C 380.539,190.099, 384,206.645, 384,224s-3.461,33.901-9.72,48.993l 61.063,25.293l 27.647,11.452C 473.944,283.327, 480,254.373, 480,224
	C 480,193.627, 473.943,164.673, 462.99,138.262L 462.99,138.262z M 341.739,430.99L 341.739,430.99L 341.739,430.99l-36.745-88.71
	C 289.902,348.539, 273.356,352, 256,352s-33.901-3.461-48.993-9.72l-17.23,41.599l-19.515,47.112C 196.673,441.943, 225.628,448, 256,448
	C 286.373,448, 315.327,441.943, 341.739,430.99z M 49.010,309.738l 47.112-19.515l 41.599-17.23C 131.462,257.901, 128,241.355, 128,224
	s 3.461-33.901, 9.72-48.993l-88.71-36.745C 38.057,164.673, 32,193.627, 32,224C 32,254.373, 38.057,283.327, 49.010,309.738z
	 M 170.262,17.010l 11.452,27.647l 25.293,61.063C 222.099,99.461, 238.645,96, 256,96s 33.901,3.461, 48.993,9.72l 36.745-88.71l0,0l0,0
	C 315.327,6.058, 286.373,0, 256,0C 225.628,0, 196.673,6.057, 170.262,17.010z" data-tags="support, help" />
<glyph unicode="&#xe01d;" d="M 352,160c-32-32-32-64-64-64s-64,32-96,64s-64,64-64,96s 32,32, 64,64S 128,448, 96,448S0,352,0,352c0-64, 65.75-193.75, 128-256
	s 192-128, 256-128c0,0, 96,64, 96,96S 384,192, 352,160z" data-tags="phone, contact, support, _new" />
<glyph unicode="&#xe01e;" d="M 325.608,214.818L 512,86.264L 512,382.211 	zM0,382.211L0,86.264L 186.388,214.836 	zM 256,152.309L 211.499,192.264L0,64L 512,64L 300.495,192.264 	zM 496.64,384L 15.36,384L 256,203.074 	z" data-tags="mail, contact, support, newsletter, letter, email" />
<glyph unicode="&#xe01f;" d="M 256,480c-81.67,0-147.871-66.202-147.871-147.87c0-2.014, 0.061-4.101, 0.16-6.224c 0.050-1.234, 0.126-2.454, 0.209-3.682
	c 0.051-0.779, 0.113-1.574, 0.18-2.371c 0.104-1.304, 0.21-2.61, 0.35-3.906C 121.292,196.493, 256.001-32, 256.001-32
	s 134.705,228.492, 146.97,347.948c 0.143,1.295, 0.245,2.603, 0.351,3.905c 0.065,0.797, 0.131,1.592, 0.183,2.371
	c 0.084,1.229, 0.158,2.447, 0.21,3.683c 0.097,2.124, 0.157,4.211, 0.157,6.224C 403.866,413.799, 337.666,480, 256,480z M 320,320
	c0-35.347-28.654-64-64-64c-35.346,0-64,28.653-64,64s 28.654,64, 64,64C 291.346,384, 320,355.347, 320,320z" data-tags="location, map marker, pin" />
<glyph unicode="&#xe020;" d="M 256,480C 114.615,480,0,365.385,0,224s 114.615-256, 256-256s 256,114.615, 256,256S 397.385,480, 256,480z M 256,0
		C 132.288,0, 32,100.288, 32,224S 132.288,448, 256,448s 224-100.288, 224-224S 379.712,0, 256,0zM 128,96l 169.373,79.17L 384,352l-173.255-82.745L 128,96z M 256,256c 17.673,0, 32-14.327, 32-32c0-17.673-14.327-32-32-32
		c-17.673,0-32,14.327-32,32C 224,241.673, 238.327,256, 256,256z" data-tags="compass, map, navigation, location, address" />
<glyph unicode="&#xe021;" d="M 256,352L 256,192L 384,192L 384,224L 288,224L 288,352 	zM 288,448C 164.288,448, 64,347.712, 64,224L0,224 l 80-96l 80,96L 96,224 c0,106.039, 85.961,192, 192,192c 106.039,0, 192-85.961, 192-192
		c0-106.039-85.961-192-192-192c-10.904,0-21.592,0.923-32,2.67l0-32.385 c 10.453-1.495, 21.134-2.285, 32-2.285
		c 123.712,0, 224,100.288, 224,224S 411.712,448, 288,448z" data-tags="history, archive" />
<glyph unicode="&#xe022;" d="M 240,448C 107.452,448,0,340.548,0,208c0-132.549, 107.452-240, 240-240c 132.549,0, 240,107.451, 240,240
		C 480,340.548, 372.549,448, 240,448z M 240,0c-114.875,0-208,93.125-208,208S 125.125,416, 240,416s 208-93.125, 208-208
		S 354.875,0, 240,0zM 256,253.258L 256,384 l-32,0 l0-130.742 c-18.641-6.59-32-24.36-32-45.258c0-26.51, 21.49-48, 48-48c 20.898,0, 38.667,13.359, 45.258,32
		L 384,192 l0,32 l-98.742,0 C 280.438,237.635, 269.636,248.437, 256,253.258z" data-tags="clock, time, history" />
<glyph unicode="&#xe023;" d="M 512,64c-53.021,0-96,42.98-96,96L 416,302.545 c0,70.369-54.971,129.064-128,142.542L 288,480 l-64,0 l0-34.912 
	C 150.968,431.609, 96,372.915, 96,302.546L 96,160 c0-53.020-42.981-96-96-96l0-32 l 214.799,0 c-2.604-5.712-4.055-12.059-4.055-18.745
	C 210.744-11.738, 231.006-32, 256-32c 24.992,0, 45.255,20.262, 45.255,45.255c0,6.688-1.451,13.033-4.056,18.745L 512,32 L 512,64 z" data-tags="bell, alarm, notification" />
<glyph unicode="&#xe024;" d="M 160,288L 224,288L 224,224L 160,224zM 256,288L 320,288L 320,224L 256,224zM 352,288L 416,288L 416,224L 352,224zM 64,96L 128,96L 128,32L 64,32zM 160,96L 224,96L 224,32L 160,32zM 256,96L 320,96L 320,32L 256,32zM 160,192L 224,192L 224,128L 160,128zM 256,192L 320,192L 320,128L 256,128zM 352,192L 416,192L 416,128L 352,128zM 64,192L 128,192L 128,128L 64,128zM 416,480l0-32 l-64,0 L 352,480 L 128,480 l0-32 L 64,448 L 64,480 L0,480 l0-512 l 480,0 L 480,480 L 416,480 z M 448,0L 32,0 L 32,352 l 416,0 L 448,0 z" data-tags="calendar, schedule, date, time" />
<glyph unicode="&#xe025;" d="M 448,192L 448,64L 64,64L 64,192L0,192L0,0L 512,0L 512,192 		zM 416,448L 96,448 l0-352 l 320,0 L 416,448 z M 352,160L 160,160 l0,32 l 192,0 L 352,160 z M 352,256L 160,256 l0,32 l 192,0 L 352,256 z M 352,352L 160,352 L 160,384 l 192,0 L 352,352 z" data-tags="printer" />
<glyph unicode="&#xe026;" d="M 320,440.571L 320,288 L 192,288 L 192,440.571 C 144.201,429.454, 96,403.976, 96,352l0-212 c0-77.318, 71.634-140, 160-140c 88.363,0, 160,62.682, 160,140
		L 416,352 C 416,403.976, 367.799,429.454, 320,440.571zM 288,446.067C 276.277,447.421, 265.321,448, 256,448c-9.32,0-20.276-0.579-32-1.933L 224,320 l 64,0 L 288,446.067 z" data-tags="mouse" />
<glyph unicode="&#xe027;" d="M 512,64L 512,448 L0,448 l0-384 l 224,0 l0-32 l-96,0 l0-32 l 256,0 l0,32 l-96,0 l0,32 L 512,64 z M 64,384l 384,0 l0-256 L 64,128 L 64,384 z" data-tags="screen, monitor, computer" />
<glyph unicode="&#xe028;" d="M 448,128L 448,384 c0,17.6-14.4,32-32,32L 96,416 c-17.6,0-32-14.4-32-32l0-256 L0,128 l0-96 l 512,0 l0,96 L 448,128 z M 320,64L 192,64 l0,32 l 128,0 L 320,64 z M 416,128L 96,128 
	L 96,383.943 c 0.017,0.020, 0.038,0.041, 0.057,0.057l 319.885,0 c 0.020-0.017, 0.041-0.038, 0.058-0.058L 416,128 z" data-tags="laptop, pc, computer" />
<glyph unicode="&#xe029;" d="M 336,480c-8.837,0-16-7.163-16-16l0-48 L 144,416 c-8.836,0-16-7.163-16-16l0-416 c0-8.836, 7.164-16, 16-16l 192,0 c 8.837,0, 16,7.164, 16,16L 352,464 
	C 352,472.837, 344.837,480, 336,480z M 192,0l-32,0 l0,32 l 32,0 L 192,0 z M 192,64l-32,0 l0,32 l 32,0 L 192,64 z M 192,128l-32,0 l0,32 l 32,0 L 192,128 z M 256,0l-32,0 l0,32 l 32,0 L 256,0 z
	 M 256,64l-32,0 l0,32 l 32,0 L 256,64 z M 256,128l-32,0 l0,32 l 32,0 L 256,128 z M 320,0l-32,0 l0,32 l 32,0 L 320,0 z M 320,64l-32,0 l0,32 l 32,0 L 320,64 z M 320,128l-32,0 l0,32 l 32,0 L 320,128 z
	 M 320,208c0-8.836-7.163-16-16-16L 176,192 c-8.836,0-16,7.164-16,16L 160,368 c0,8.837, 7.164,16, 16,16l 128,0 c 8.837,0, 16-7.163, 16-16L 320,208 z" data-tags="mobile, phone, contact" />
<glyph unicode="&#xe02a;" d="M 352,480L 160,480 L 64,416l0-128 l 384,0 L 448,416 L 352,480z M 320,320l-32,0 l0,21.333 C 288,347.2, 283.2,352, 277.333,352l-42.666,0 
		c-5.866,0-10.667-4.8-10.667-10.667L 224,320 l-32,0 l0,53.333 C 192,379.2, 196.801,384, 202.667,384l 106.665,0 c 5.867,0, 10.668-4.8, 10.668-10.667
		L 320,320 zM 64,127.999l 384,0 L 448,256 L 64,256 L 64,127.999 z M 192,213.334c0,5.867, 4.801,10.666, 10.667,10.666l 106.665,0 
		c 5.867,0, 10.668-4.799, 10.668-10.666L 320,160 l-32,0 l0,21.334 c0,5.867-4.8,10.666-10.667,10.666l-42.666,0 
		c-5.866,0-10.667-4.799-10.667-10.666L 224,160 l-32,0 L 192,213.334 zM 64-32l 384,0 L 448,95.999 L 64,95.999 L 64-32 z M 192,53.334c0,5.867, 4.801,10.666, 10.667,10.666l 106.665,0 c 5.867,0, 10.668-4.799, 10.668-10.666
		L 320,0 l-32,0 l0,21.334 c0,5.867-4.8,10.666-10.667,10.666l-42.666,0 c-5.866,0-10.667-4.799-10.667-10.666L 224,0 l-32,0 L 192,53.334 z" data-tags="cabinet, storage, drawer, archive" />
<glyph unicode="&#xe02b;" d="M 352,384L 160,384 L0,192l0-80 l0-48 c0-17.673, 14.327-32, 32-32l 448,0 c 17.674,0, 32,14.327, 32,32l0,48 l0,80 L 352,384z M 384,192l-64-64L 192,128 
	l-64,64L 41.655,192 l 133.333,160l 162.024,0 l 133.333-160L 384,192 z" data-tags="drawer, inbox, box, archive, storage" />
<glyph unicode="&#xe02c;" d="M 352,384L 160,384 L0,192l0-128 c0-17.673, 14.327-32, 32-32l 448,0 c 17.674,0, 32,14.327, 32,32L 512,192 L 352,384z M 320,128L 192,128 l-32,32l 192,0 
		L 320,128z M 41.655,192l 133.333,160l 162.024,0 l 133.333-160L 41.655,192 zM 142.482,288L 369.518,288L 342.851,320L 169.148,320 	zM 89.149,224L 422.852,224L 396.185,256L 115.815,256 	z" data-tags="drawer, category, archive" />
<glyph unicode="&#xe02d;" d="M 32,416L 480,416L 480,352L 32,352zM 64,32l 384,0 L 448,320 L 64,320 L 64,32 z M 192,288l 128,0 l0-32 L 192,256 L 192,288 z" data-tags="box, storage, inbox, archive" />
<glyph unicode="&#xe02e;" d="M 416,448L 96,448 L0,352l0-336 c0-8.837, 7.163-16, 16-16l 480,0 c 8.836,0, 16,7.163, 16,16L 512,352 L 416,448z M 256,64L 96,192l 96,0 l0,96 l 128,0 l0-96 l 96,0 
	L 256,64z M 77.255,384l 32,32l 293.489,0 l 32-32L 77.255,384 z" data-tags="box-add, storage, inbox, archive" />
<glyph unicode="&#xe02f;" d="M 416,448L 96,448 L0,352l0-336 c0-8.837, 7.163-16, 16-16l 480,0 c 8.836,0, 16,7.163, 16,16L 512,352 L 416,448z M 320,160l0-96 L 192,64 l0,96 L 96,160 l 160,128
	l 160-128L 320,160 z M 77.255,384l 32,32l 293.488,0 l 32-32L 77.255,384 z" data-tags="box-remove, storage, inbox, archive" />
<glyph unicode="&#xe030;" d="M 256,192L 384,320L 288,320L 288,448L 224,448L 224,320L 128,320 	zM 372.363,244.364L 336.493,208.493L 466.533,160L 256,81.491L 45.467,160L 175.507,208.493L 139.636,244.364L0,192L0,64L 256-32L 512,64L 512,192 	z" data-tags="download, store, save, _new" />
<glyph unicode="&#xe031;" d="M 224,192L 288,192L 288,320L 384,320L 256,448L 128,320L 224,320 	zM 320,264L 320,214.644L 466.533,160L 256,81.491L 45.467,160L 192,214.644L 192,264L0,192L0,64L 256-32L 512,64L 512,192 	z" data-tags="upload, load, export, _new" />
<glyph unicode="&#xe032;" d="M 256,480C 114.614,480,0,444.184,0,400l0-64 c0-44.183, 114.611-80, 256-80c 141.385,0, 256,35.817, 256,80L 512,400 C 512,444.184, 397.385,480, 256,480
		zM 255.193,224C 140.566,224, 43.94,247.543, 11.32,280C 3.705,272.423,0,264.361,0,256l0-64 c0-44.184, 114.611-80, 256-80
		c 141.385,0, 256,35.816, 256,80l0,64 c0,8.361-4.516,16.423-12.131,24C 467.25,247.543, 369.82,224, 255.193,224zM 255.193,80C 140.566,80, 43.94,103.544, 11.32,136C 3.705,128.424,0,120.361,0,112l0-64 c0-44.183, 114.611-80, 256-80
		c 141.385,0, 256,35.817, 256,80l0,64 c0,8.361-4.516,16.424-12.131,24C 467.25,103.544, 369.82,80, 255.193,80z" data-tags="database, server, host, storage, save" />
<glyph unicode="&#xe033;" d="M0,288L 512,288L 512,480 		zM 512,0L 512,192L0,192 		z" data-tags="flip, mirror, vertical" />
<glyph unicode="&#xe034;" d="M 288,480L 288-32L 480-32 		zM0-32L 192-32L 192,480 		z" data-tags="flip, mirror, horizontal" />
<glyph unicode="&#xe035;" d="M 380.931-32C 437.794,71.016, 447.375,228.153, 224,222.912L 224,96 L 32,288L 224,480l0-124.186 
	C 491.481,362.785, 521.285,119.707, 380.931-32z" data-tags="undo, arrow, left" />
<glyph unicode="&#xe036;" d="M 288,355.814L 288,480 l 192-192L 288,96L 288,222.912 C 64.625,228.153, 74.206,71.016, 131.070-32
	C-9.286,119.707, 20.52,362.785, 288,355.814z" data-tags="redo, arrow, right" />
<glyph unicode="&#xe037;" d="M 131.070,480C 74.206,376.984, 64.625,219.848, 288,225.088L 288,352 l 192-192L 288-32L 288,92.186 C 20.52,85.215-9.286,328.293, 131.070,480z" data-tags="forward, arrow, right" />
<glyph unicode="&#xe038;" d="M 224,92.186L 224-32 L 32,160l 192,192l0-126.912 C 447.375,219.848, 437.794,376.984, 380.931,480
	C 521.286,328.293, 491.481,85.215, 224,92.186z" data-tags="reply, arrow, left" />
<glyph unicode="&#xe039;" d="M 429.406,480C 486.27,376.984, 511.375,219.848, 288,225.088L 288,352 L 96,160l 192-192L 288,92.186 C 512,92.186, 569.762,328.293, 429.406,480
		zM 192,306.745L 192,352L0,160L 192-32L 192,13.255L 45.255,160 	z" data-tags="reply, replyall" />
<glyph unicode="&#xe03a;" d="M 255.993,471.963C 114.606,471.963, 0.001,385.424, 0.001,278.684c0-83.391, 69.951-154.469, 167.963-181.565
	c 1.438-8.104, 3.25-19.646, 3.25-26.787c0-33.625-12.867-65.518-35.788-94.295c 35.444,14.928, 85.475,62.898, 116.473,109.432
	c 1.367-0.016, 2.729-0.084, 4.095-0.084c 141.4,0, 256.007,86.539, 256.007,193.299C 512.002,385.424, 397.395,471.963, 255.993,471.963z" data-tags="comments, chat, bubble, message, talk" />
<glyph unicode="&#xe03b;" d="M 512,176c0,31.984-26.282,59.581-64.259,72.383c-3.818-58.182-51.143-108.229-119.261-133.935
		c 12.653-7.509, 27.651-13.072, 44.103-16.029c 11.884-27.769, 30.681-54.436, 53.733-71.93c-12.468,24.473-13.195,48.944-8.824,70.484
		C 471.038,102.973, 512,136.068, 512,176zM 416,256c0,70.692-85.961,128-192,128C 117.962,384, 32,326.692, 32,256c0-52.637, 47.664-97.845, 115.781-117.509
		c 10.66-26.364, 16.668-61.164-1.062-95.967c 26.945,20.448, 48.081,53.424, 59.146,86.048C 211.837,128.199, 217.883,128, 224,128
		C 330.039,128, 416,185.308, 416,256z" data-tags="comments, chat, bubble, message, talk" />
<glyph unicode="&#xe03c;" d="M 464,480L 48,480 C 21.6,480,0,458.4,0,432l0-320 c0-26.4, 21.6-48, 48-48l 112,0 l 96-96l 96,96l 112,0 c 26.4,0, 48,21.6, 48,48L 512,432 
	C 512,458.4, 490.401,480, 464,480z" data-tags="comments, chat, bubble, message, talk" />
<glyph unicode="&#xe03d;" d="M 464,352L 176,352 c-26.4,0-48-21.6-48-48l0-224 c0-26.4, 21.6-48, 48-48l 80,0 l 64-64l 64,64l 80,0 c 26.4,0, 48,21.6, 48,48L 512,304 
		C 512,330.4, 490.401,352, 464,352zM 384,432c0,26.4-21.6,48-48,48L 48,480 C 21.6,480,0,458.4,0,432l0-224 c0-26.4, 21.6-48, 48-48l 16,0 L 64,368 c0,26.51, 21.49,48, 48,48l 272,0 L 384,432 z" data-tags="comments, chat, bubble, message, talk" />
<glyph unicode="&#xe03e;" d="M 480,416L 32,416 C 14.4,416,0,401.6,0,384l0-224 c0-17.6, 14.4-32, 32-32l 64,0 l0-96 l 72,96l 312,0 c 17.6,0, 32,14.4, 32,32L 512,384 
	C 512,401.6, 497.6,416, 480,416z M 160,224L 96,224 l0,64 l 64,0 L 160,224 z M 288,224l-64,0 l0,64 l 64,0 L 288,224 z M 416,224l-64,0 l0,64 l 64,0 L 416,224 z" data-tags="comments, chat, bubble, message, talk" />
<glyph unicode="&#xe03f;" d="M 128,320A128,128 10260 1 1 384,320A128,128 10260 1 1 128,320zM 384,160L 128,160 C 57.308,160,0,102.691,0,32l0-32 l 4.033,0 l 503.934,0 L 512,0 l0,32 C 512,102.691, 454.692,160, 384,160z" data-tags="user, profile, avatar, person, talk" />
<glyph unicode="&#xe040;" d="M 311.413,128.632c-11.055,1.759-11.307,32.157-11.307,32.157s 32.484,32.158, 39.564,75.401
	c 19.045,0, 30.809,45.973, 11.761,62.148C 352.226,315.365, 375.911,432, 256,432c-119.911,0-96.225-116.635-95.432-133.662
	c-19.047-16.175-7.285-62.148, 11.761-62.148c 7.079-43.243, 39.564-75.401, 39.564-75.401s-0.252-30.398-11.307-32.157
	C 164.976,122.966, 32,64.315, 32,0l 224,0 l 224,0 C 480,64.315, 347.024,122.966, 311.413,128.632z" data-tags="user, profile, avatar, person, talk" />
<glyph unicode="&#xe041;" d="M 160,384A96,96 8460 1 1 352,384A96,96 8460 1 1 160,384zM 384.039,256l-0.078,0 l-17.634,0 l-99.552-202.122L 304,240l-48,48l-48-48l 37.225-186.122L 145.674,256l-17.635,0 l-0.077,0 
		C 64,256, 64,213.007, 64,160l0-160 l 384,0 L 448,160 C 448,213.007, 448,256, 384.039,256z" data-tags="user, job, official, employee" />
<glyph unicode="&#xe042;" d="M 364.496,224C 433.373,267.667, 480,351.604, 480,448c0,10.838-0.596,21.517-1.739,32L 33.74,480 C 32.595,469.516, 32,458.837, 32,448
		c0-96.396, 46.627-180.333, 115.503-224C 78.627,180.333, 32,96.396, 32,0c0-10.838, 0.595-21.517, 1.739-32l 444.521,0 
		c 1.144,10.483, 1.739,21.162, 1.739,32C 480,96.396, 433.373,180.333, 364.496,224z M 80,0c0,93.456, 40.081,172.707, 112,198.854
		l0,50.293 l0,0 C 120.081,275.292, 80,354.543, 80,448l0,0 l 352,0 l0,0 c0-93.457-40.081-172.708-112-198.853l0-50.293 
		C 391.919,172.707, 432,93.456, 432,0L 80,0 zM 309.813,145.203c-35.827,20.322-37.804,46.684-37.813,62.683L 272,240 c0,15.997, 1.902,42.457, 37.872,62.832
		c 19.252,11.182, 35.904,28.174, 48.524,49.168L 153.605,352 c 12.633-21.016, 29.306-38.021, 48.583-49.203
		c 35.827-20.322, 37.803-46.683, 37.813-62.683L 240.001,208 c0-15.996-1.902-42.457-37.872-62.832c-36.311-21.090-63.369-62.842-71.545-113.168
		l 250.835,0 C 373.237,82.354, 346.154,124.124, 309.813,145.203z" data-tags="busy, wait, loading, hour glass" />
<glyph unicode="&#xe043;" d="M 192,416A64,64 10260 1 1 320,416A64,64 10260 1 1 192,416zM 327.765,359.765A64,64 10260 1 1 455.765,359.765A64,64 10260 1 1 327.765,359.765zM 416,224A32,32 10260 1 1 480,224A32,32 10260 1 1 416,224zM 359.765,88.235A32,32 10260 1 1 423.765,88.23500000000001A32,32 10260 1 1 359.765,88.23500000000001zM 224.001,32A32,32 10260 1 1 288.001,32A32,32 10260 1 1 224.001,32zM 88.236,88.235A32,32 10260 1 1 152.236,88.23500000000001A32,32 10260 1 1 88.236,88.23500000000001zM 72.236,359.765A48,48 10260 1 1 168.236,359.765A48,48 10260 1 1 72.236,359.765zM 28,224A36,36 10260 1 1 100,224A36,36 10260 1 1 28,224z" data-tags="loading, busy, wait, wheel" />
<glyph unicode="&#xe044;" d="M 512,224c-0.639,33.431-7.892,66.758-21.288,97.231c-13.352,30.5-32.731,58.129-56.521,80.96
	c-23.776,22.848-51.972,40.91-82.492,52.826C 321.197,466.979, 288.401,472.693, 256,472c-32.405-0.641-64.666-7.687-94.167-20.678
	c-29.524-12.948-56.271-31.735-78.367-54.788c-22.112-23.041-39.58-50.354-51.093-79.899C 20.816,287.104, 15.309,255.375, 16,224
	c 0.643-31.38, 7.482-62.574, 20.067-91.103c 12.544-28.55, 30.738-54.414, 53.055-75.774c 22.305-21.377, 48.736-38.252, 77.307-49.36
	C 194.988-3.389, 225.652-8.688, 256-8c 30.354,0.645, 60.481,7.277, 88.038,19.457c 27.575,12.141, 52.558,29.74, 73.183,51.322
	c 20.641,21.57, 36.922,47.118, 47.627,74.715c 6.517,16.729, 10.94,34.2, 13.271,51.899c 0.623-0.036, 1.249-0.060, 1.881-0.060
	c 17.673,0, 32,14.326, 32,32c0,0.898-0.047,1.786-0.119,2.666L 512,223.999 z M 461.153,139.026c-11.736-26.601-28.742-50.7-49.589-70.59
	c-20.835-19.905-45.5-35.593-72.122-45.895C 312.828,12.202, 284.297,7.315, 256,8c-28.302,0.649-56.298,6.868-81.91,18.237
	c-25.625,11.333-48.842,27.745-67.997,47.856c-19.169,20.099-34.264,43.882-44.161,69.529C 51.997,169.264, 47.318,196.729, 48,224
	c 0.651,27.276, 6.664,54.206, 17.627,78.845c 10.929,24.65, 26.749,46.985, 46.123,65.405c 19.365,18.434, 42.265,32.935, 66.937,42.428
	C 203.356,420.208, 229.755,424.681, 256,424c 26.25-0.653, 52.114-6.459, 75.781-17.017c 23.676-10.525, 45.128-25.751, 62.812-44.391
	c 17.698-18.629, 31.605-40.647, 40.695-64.344C 444.412,274.552, 448.679,249.219, 448,224l 0.119,0 c-0.072-0.88-0.119-1.768-0.119-2.666
	c0-16.506, 12.496-30.087, 28.543-31.812C 473.431,172.111, 468.278,155.113, 461.153,139.026z" data-tags="loading, busy, wait, wheel" />
<glyph unicode="&#xe045;" d="M 496.131,44.302L 374.855,147.449c-12.537,11.283-25.945,16.463-36.776,15.963C 366.707,196.946, 384,240.451, 384,288
	C 384,394.039, 298.039,480, 192,480C 85.962,480,0,394.039,0,288c0-106.039, 85.961-192, 192-192c 47.549,0, 91.054,17.293, 124.588,45.922
	c-0.5-10.831, 4.68-24.239, 15.963-36.776l 103.147-121.276c 17.661-19.623, 46.511-21.277, 64.11-3.678S 515.754,26.641, 496.131,44.302z
	 M 192,160c-70.692,0-128,57.308-128,128S 121.308,416, 192,416s 128-57.308, 128-128S 262.693,160, 192,160z" data-tags="search, magnifier, lookup, find" />
<glyph unicode="&#xe046;" d="M 496.131,44.302L 374.855,147.449c-12.537,11.283-25.945,16.463-36.776,15.963C 366.707,196.946, 384,240.451, 384,288
		C 384,394.039, 298.039,480, 192,480C 85.962,480,0,394.039,0,288c0-106.039, 85.961-192, 192-192c 47.549,0, 91.054,17.293, 124.588,45.922
		c-0.5-10.831, 4.68-24.239, 15.963-36.776l 103.147-121.276c 17.661-19.623, 46.511-21.277, 64.11-3.678S 515.754,26.641, 496.131,44.302
		z M 192,160c-70.692,0-128,57.308-128,128S 121.308,416, 192,416s 128-57.308, 128-128S 262.693,160, 192,160zM 224,384L 160,384L 160,320L 96,320L 96,256L 160,256L 160,192L 224,192L 224,256L 288,256L 288,320L 224,320 	z" data-tags="zoom in, enlarge, scale" />
<glyph unicode="&#xe047;" d="M 496.131,44.302L 374.855,147.449c-12.537,11.283-25.945,16.463-36.776,15.963C 366.707,196.946, 384,240.451, 384,288
		C 384,394.039, 298.039,480, 192,480C 85.962,480,0,394.039,0,288c0-106.039, 85.961-192, 192-192c 47.549,0, 91.054,17.293, 124.588,45.922
		c-0.5-10.831, 4.68-24.239, 15.963-36.776l 103.147-121.276c 17.661-19.623, 46.511-21.277, 64.11-3.678S 515.754,26.641, 496.131,44.302
		z M 192,160c-70.692,0-128,57.308-128,128S 121.308,416, 192,416s 128-57.308, 128-128S 262.693,160, 192,160zM 96,320L 288,320L 288,256L 96,256z" data-tags="zoom out, smaller, scale, reduce" />
<glyph unicode="&#xe048;" d="M 352,480c-88.365,0-160-71.634-160-160c0-10.013, 0.929-19.808, 2.688-29.312L0,96l0-96 c0-17.673, 14.327-32, 32-32
	l 32,0 l0,32 l 64,0 l0,64 l 64,0 l0,64 l 64,0 l 41.521,41.521C 314.526,163.363, 332.869,160, 352,160c 88.365,0, 160,71.634, 160,160S 440.365,480, 352,480z
	 M 399.937,319.937c-26.51,0-48,21.49-48,48s 21.49,48, 48,48s 48-21.49, 48-48S 426.447,319.937, 399.937,319.937z" data-tags="key, lock, password, login" />
<glyph unicode="&#xe049;" d="M 501.066,322.879l-50.553,50.552c-12.396,12.397-32.685,32.684-45.081,45.082l-50.553,50.552
	c-12.396,12.397-34.477,14.583-49.065,4.858L 167.595,381.777c-14.588-9.726-20.109-30.514-12.268-46.195l 35.243-70.487
	c 1.077-2.153, 2.323-4.448, 3.695-6.83L 16,80L0-32l 96,0 l0,32 l 64,0 l0,64 l 64,0 l0,64l 64,0 l0,35.593 c 3.198-1.906, 6.267-3.608, 9.096-5.022
	l 70.485-35.244c 15.683-7.841, 36.47-2.319, 46.195,12.269l 92.147,138.22C 515.65,288.402, 513.462,310.481, 501.066,322.879z
	 M 75.314,52.687l-22.627,22.627l 155.786,155.785l 22.627-22.627L 75.314,52.687z M 458.51,268.118l-22.628-22.628
	c-6.223-6.222-16.404-6.222-22.627,0L 277.49,381.255c-6.223,6.222-6.223,16.405,0,22.627l 22.628,22.628
	c 6.223,6.222, 16.404,6.222, 22.627,0L 458.51,290.745C 464.733,284.523, 464.733,274.34, 458.51,268.118z" data-tags="key, lock, password, login" />
<glyph unicode="&#xe04a;" d="M 304,256l-16,0 l0,64 c0,70.692-57.308,128-128,128S 32,390.692, 32,320l0-64 L 16,256 c-8.8,0-16-7.2-16-16l0-224 c0-8.8, 7.2-16, 16-16l 288,0 
	c 8.8,0, 16,7.2, 16,16L 320,240 C 320,248.8, 312.8,256, 304,256z M 186.465,135.959L 192,64l-64,0 l 5.535,71.959
	C 120.561,144.551, 112,159.272, 112,176c0,26.51, 21.49,48, 48,48s 48-21.49, 48-48C 208,159.272, 199.439,144.551, 186.465,135.959z M 64,256
	l0,64 c0,53.020, 42.98,96, 96,96s 96-42.98, 96-96l0-64 L 64,256 z" data-tags="locked, password, login, secure, security" />
<glyph unicode="&#xe04b;" d="M 384,448c-70.692,0-128-57.308-128-128l0-64 L 16,256 c-8.8,0-16-7.2-16-16l0-224 c0-8.8, 7.2-16, 16-16l 288,0 c 8.8,0, 16,7.2, 16,16L 320,240 
	c0,8.8-7.2,16-16,16l-16,0 l0,64 c0,53.020, 42.98,96, 96,96s 96-42.98, 96-96l0-64 l 32,0 l0,64 C 512,390.692, 454.693,448, 384,448z M 186.465,135.959
	L 192,64l-64,0 l 5.535,71.959C 120.561,144.551, 112,159.272, 112,176c0,26.51, 21.49,48, 48,48s 48-21.49, 48-48
	C 208,159.272, 199.439,144.551, 186.465,135.959z" data-tags="unlocked, login" />
<glyph unicode="&#xe04c;" d="M 507.882,411.883L 448,352l-64,64l 59.882,59.883C 435.057,478.557, 425.698,480, 416,480c-53.021,0-96-42.98-96-96
	c0-9.697, 1.442-19.057, 4.116-27.882L 123.882,155.883C 115.057,158.557, 105.698,160, 96,160c-53.021,0-96-42.98-96-96
	c0-9.697, 1.442-19.058, 4.117-27.882L 64,96l 64-64l-59.883-59.882C 76.943-30.556, 86.302-32, 96-32c 53.020,0, 96,42.981, 96,96
	c0,9.698-1.444,19.059-4.118,27.883l 200.234,200.235C 396.943,289.444, 406.302,288, 416,288c 53.020,0, 96,42.981, 96,96
	C 512,393.698, 510.556,403.058, 507.882,411.883z" data-tags="wrench, settings, control, tool, options" />
<glyph unicode="&#xe04d;" d="M 144,320L 80,320 c-8.8,0-16-7.2-16-16l0-32 c0-8.8, 7.2-16, 16-16l 64,0 c 8.8,0, 16,7.2, 16,16l0,32 C 160,312.8, 152.8,320, 144,320zM 96,416L 128,416L 128,336L 96,336zM 96,240L 128,240L 128,32L 96,32zM 272,192l-64,0 c-8.8,0-16-7.2-16-16l0-32 c0-8.8, 7.2-16, 16-16l 64,0 c 8.801,0, 16,7.2, 16,16l0,32 C 288,184.8, 280.801,192, 272,192zM 224.001,416L 256.001,416L 256.001,208L 224.001,208zM 224.001,112L 256.001,112L 256.001,32L 224.001,32zM 400,288l-64,0 c-8.799,0-16-7.2-16-16l0-32 c0-8.8, 7.201-16, 16-16l 64,0 c 8.801,0, 16,7.2, 16,16l0,32 C 416,280.8, 408.801,288, 400,288zM 352,416L 384,416L 384,304L 352,304zM 352,208L 384,208L 384,32L 352,32zM 440,480L 40,480 C 17.944,480,0,462.056,0,440l0-432 c0-22.056, 17.944-40, 40-40l 400,0 c 22.056,0, 40,17.944, 40,40L 480,440 
		C 480,462.056, 462.056,480, 440,480z M 448,8c0-4.4-3.6-8-8-8L 40,0 c-4.4,0-8,3.6-8,8L 32,440 c0,4.4, 3.6,8, 8,8l 400,0 c 4.4,0, 8-3.6, 8-8L 448,8 z" data-tags="equalizer, control, options, settings, dashboard" />
<glyph unicode="&#xe04e;" d="M 466.895,174.875c-26.863,46.527-10.708,106.152, 36.076,133.244l-50.313,87.146c-14.375-8.427-31.088-13.259-48.923-13.259
	c-53.768,0-97.354,43.873-97.354,97.995L 205.752,480.001 c 0.133-16.705-4.037-33.641-12.979-49.126
	c-26.862-46.528-86.578-62.351-133.431-35.379L 9.030,308.35c 14.485-8.236, 27.025-20.294, 35.943-35.739
	c 26.819-46.454, 10.756-105.96-35.854-133.112l 50.313-87.146c 14.325,8.348, 30.958,13.127, 48.7,13.127
	c 53.598,0, 97.072-43.596, 97.35-97.479l 100.627,0 c-0.043,16.537, 4.136,33.285, 12.983,48.609
	c 26.818,46.453, 86.388,62.297, 133.207,35.506l 50.313,87.145C 488.222,147.494, 475.766,159.51, 466.895,174.875z M 256,120.334
	c-57.254,0-103.668,46.412-103.668,103.667c0,57.254, 46.413,103.667, 103.668,103.667c 57.254,0, 103.666-46.413, 103.666-103.667
	C 359.665,166.746, 313.254,120.334, 256,120.334z" data-tags="cog, preferences, settings, gear, generate, control, options" />
<glyph unicode="&#xe04f;" d="M 224,192L 224,416 C 100.288,416,0,315.712,0,192s 100.288-224, 224-224s 224,100.288, 224,224c0,36.017-8.514,70.042-23.618,100.191
		L 224,192zM 456.382,356.191C 419.606,429.599, 343.695,480, 256,480l0-224 L 456.382,356.191z" data-tags="pie, statistics, stats, chart, graph" />
<glyph unicode="&#xe050;" d="M0,64L 512,64L 512,0L0,0zM 64,192L 128,192L 128,96L 64,96zM 160,320L 224,320L 224,96L 160,96zM 256,224L 320,224L 320,96L 256,96zM 352,416L 416,416L 416,96L 352,96z" data-tags="bars, statistics, stats, chart, graph" />
<glyph unicode="&#xe051;" d="M 32,128L 96,128L 96-32L 32-32zM 160,192L 224,192L 224-32L 160-32zM 288,224L 352,224L 352-32L 288-32zM 416,320L 480,320L 480-32L 416-32zM 384,480L 416,448L 288,320L 224,384L 32,192L 64,160L 224,320L 288,256L 448,416L 480,384L 480,480 	z" data-tags="stats-up, bars, chart, increase, up, improve, statistics" />
<glyph unicode="&#xe052;" d="M 320,320l 96,64L 320,480l-60-140L 224,448l-96-64l 80-64L 32,320 l0-128 l 32,0 l0-224 l 384,0 L 448,192 l 32,0 L 480,320 L 320,320 z M 328.096,437.963l 50.233-50.233
	l-100.467-66.978L 328.096,437.963z M 211.168,410.601l 28.364-85.092l-70.91,56.728L 211.168,410.601z M 224,0L 96,0 L 96,208 l 128,0 L 224,0 z M 224,224
	L 64,224 l0,64 l 160,0 L 224,224 z M 416,0L 288,0 L 288,208 l 128,0 L 416,0 z M 448,224L 288,224 l0,64 l 160,0 L 448,224 z" data-tags="gift, present, birthday" />
<glyph unicode="&#xe053;" d="M 512,448c-32,0-160,0-160,0l0-64 L 160,384 L 160,448 c0,0-128,0-160,0c0-160, 128-347.188, 224-376l0-40 c-32,0-64-16-64-32l 192,0 c0,16-32,32-64,32
	l0,40 C 384,100.812, 512,288, 512,448z M 383.85,366.773L 384,384L 384,416 l 94.227,0 c-2.787-25.839-8.855-53.128-18.14-81.495
	c-12.272-37.499-30.058-75.91-51.433-111.082c-20.559-33.826-43.896-63.859-67.488-86.852c-2.266-2.208-4.521-4.336-6.765-6.391
	C 376.819,215.238, 382.961,321.678, 383.85,366.773z M 170.834,136.572c-23.593,22.992-46.93,53.025-67.488,86.852
	c-21.375,35.172-39.161,73.583-51.433,111.082C 42.629,362.872, 36.56,390.161, 33.773,416L 128,416 l0-32 l 0.15-17.227
	c 0.889-45.096, 7.031-151.535, 49.448-236.592C 175.355,132.236, 173.099,134.364, 170.834,136.572z" data-tags="trophy, cup, prize, award, winner" />
<glyph unicode="&#xe054;" d="M 64,416L0,352L 128,352 	zM 256,352L 192,416L 128,352 	zM 256.001,352L 384,352L 320,416 	zM 512,352L 448,416L 384,352 	zM 320,416L 448,416L 416,448L 96,448L 64,416L 192,416 	zM 256,0L 112,288L 198.4,288L 256,0L 313.6,288L 400,288L 256,0L 512,320L0,320 	z" data-tags="diamond, jewelry, gem" />
<glyph unicode="&#xe055;" d="M 423.555,258.812c 0.033,2.533, 0.049,5.076, 0.049,7.626c0,30.532-93.227,55.284-208.225,55.284
		c-114.997,0-208.223-24.752-208.223-55.284C 7.156,101.615, 73.546-32, 215.379-32c 83.413,0, 140.723,46.225, 173.788,117.818
		c 3.338-0.27, 6.699-0.457, 10.119-0.457c 58.297,0, 105.559,39.356, 105.559,87.904C 504.844,214.857, 470.153,249.679, 423.555,258.812z
		 M 349.141,244.028c-36.689-8.652-84.195-13.417-133.762-13.417c-49.565,0-97.070,4.765-133.76,13.417
		c-35.822,8.448-50.376,18.136-54.252,22.411c 3.876,4.275, 18.431,13.961, 54.252,22.409c 36.688,8.653, 84.193,13.419, 133.76,13.419
		c 49.565,0, 97.071-4.767, 133.762-13.419c 35.822-8.448, 50.377-18.134, 54.254-22.409C 399.518,262.164, 384.963,252.477, 349.141,244.028
		z M 398.268,107.787c 12.537,33.865, 20.355,72.3, 23.6,113.514c 30.5-6.246, 48.42-28.615, 48.42-51.395
		C 470.285,140.523, 448.723,111.186, 398.268,107.787zM 255.689,353.922C 283.881,396.539, 206.377,442.352, 259.908,480c-44.528-2.943-52.161-30.188-40.935-51.461
		C 229.63,408.348, 255.649,394.268, 255.689,353.922zM 233.163,325.499c 12.646,35.708-59.269,64.515-19.554,105.806c-37.209-10.992-36.253-41.592-20.227-58.701
		C 204.951,360.25, 225.905,354.518, 233.163,325.499z" data-tags="coffee, cup, drink, break, tea" />
<glyph unicode="&#xe056;" d="M 352,448L 192,288L 96,288 L0,160c0,0, 101.708,28.326, 161.033,15.042L0-32l 210.951,164.072C 240.37,64.745, 192-32, 192-32l 128,96
	l0,96 l 160,160L 512,480L 352,448z" data-tags="rocket, speed, jet, spaceship, fast" />
<glyph unicode="&#xe057;" d="M 256,352C 114.615,352,0,237.386,0,96l 32,0 c0,58.209, 25.903,110.363, 66.811,145.574l 108.423-135.527
	c-0.665-3.245-1.014-6.604-1.014-10.047c0-27.492, 22.287-49.779, 49.779-49.779c 27.493,0, 49.779,22.287, 49.779,49.779
	s-22.286,49.781-49.779,49.781c-3.441,0-6.802-0.351-10.046-1.016L 111.979,251.947c 31.528,22.688, 70.213,36.054, 112.021,36.054
	c 106.038,0, 192-85.96, 192-191.999l 96,0 C 512,237.386, 397.385,352, 256,352z" data-tags="meter-slow, speed, performance, slow" />
<glyph unicode="&#xe058;" d="M 256,352C 114.615,352,0,237.386,0,96l 32,0 c0,106.039, 85.961,192, 192,192c 7.167,0, 14.241-0.396, 21.205-1.16l-16.586-149.264
	c-13.494-8.904-22.399-24.199-22.399-41.576c0-27.492, 22.288-49.779, 49.78-49.779S 305.78,68.508, 305.78,96
	c0,17.377-8.904,32.672-22.398,41.576l-16.172,145.542C 352.44,263.517, 416,187.182, 416,96l 96,0 C 512,237.386, 397.385,352, 256,352z" data-tags="meter-medium, speed, performance, medium" />
<glyph unicode="&#xe059;" d="M 416,96l 96,0 c0,141.386-114.615,256-256,256S0,237.386,0,96l 32,0 c0,106.039, 85.961,192, 192,192
	c 56.409,0, 107.136-24.326, 142.263-63.061l-100.217-80.174c-3.245,0.665-6.604,1.016-10.046,1.016
	c-27.493,0-49.78-22.289-49.78-49.781s 22.287-49.779, 49.78-49.779c 27.492,0, 49.778,22.287, 49.778,49.779
	c0,3.44-0.349,6.802-1.014,10.047l 78.166,97.707C 403.803,173.031, 416,135.941, 416,96z" data-tags="meter-fast, speed, performance, fast" />
<glyph unicode="&#xe05a;" d="M 256,480C 114.615,480,0,365.385,0,224s 114.615-256, 256-256s 256,114.615, 256,256S 397.385,480, 256,480z M 256,32
		c-106.039,0-192,85.961-192,192c0,106.039, 85.961,192, 192,192c 106.039,0, 192-85.961, 192-192C 448,117.961, 362.039,32, 256,32zM 224,352A32,32 8460 1 1 288,352A32,32 8460 1 1 224,352zM 320,320A32,32 8460 1 1 384,320A32,32 8460 1 1 320,320zM 128,320A32,32 8460 1 1 192,320A32,32 8460 1 1 128,320zM 224,128L 224,96L 288,96L 288,128L 256,288 	z" data-tags="dashboard, control panel" />
<glyph unicode="&#xe05b;" d="M 160.504-32C 51.878,29.221, 23.279,87.168, 39.63,166.311c 12.071,58.44, 56.647,105.986, 60.437,164.314
	c 16.884-30.726, 18.888-52.882, 20.775-84.99C 174.542,311.428, 230.231,399.478, 218.19,480c0,0, 133.808-64, 142.986-188.138
	c 12.041,25.587, 12.041,66.225,0,92.563c 36.122-26.339, 253.609-260.16-22.577-416.425c 51.926,101.105, 13.396,237.527-76.761,300.533
	c 6.021-27.092-1.505-97.832-41.391-142.232c 9.031,45.904-13.546,75.254-13.546,75.254s-7.402-41.555-36.122-83.533
	C 144.553,79.689, 126.381,39.004, 160.504-32z" data-tags="fire, flame, hot, popular" />
<glyph unicode="&#xe05c;" d="M 478.145,77.759L 320,341.271L 320,448 l 16,0 c 8.8,0, 16,7.2, 16,16s-7.2,16-16,16L 176,480 c-8.8,0-16-7.2-16-16s 7.2-16, 16-16l 16,0 l0-106.729 
	L 33.856,77.759C-2.365,17.392, 25.6-32, 96-32l 320,0 C 486.4-32, 514.365,17.392, 478.145,77.759z M 120.519,160L 224,332.469L 224,448 l 64,0 
	l0-115.531 L 391.482,160L 120.519,160 z" data-tags="lab, beta, test, experiment" />
<glyph unicode="&#xe05d;" d="M 480,416L 320,416 L 320,464 c0,8.836-7.163,16-16,16l-96,0 c-8.836,0-16-7.164-16-16l0-48 L 32,416 L0,352l 64,0 l 32-384l 320,0 l 32,384l 64,0 L 480,416z M 224,32
	l-64,0 L 160,320 l 64,0 L 224,32 z M 224,448l 64,0 l0-32 l-64,0 L 224,448 z M 352,32l-64,0 L 288,320 l 64,0 L 352,32 z" data-tags="remove, delete, trashcan, recycle bin" />
<glyph unicode="&#xe05e;" d="M 96-32L 416-32L 448,320L 64,320 	zM 320,416L 320,480 L 192,480 l0-64 L 32,416 l0-96 l 32,32l 384,0 l 32-32L 480,416 L 320,416 z M 288,416l-64,0 L 224,448 l 64,0 L 288,416 z" data-tags="remove, delete, trashcan, recycle bin" />
<glyph unicode="&#xe05f;" d="M 144,48c 8.837,0, 16,7.163, 16,16c0,0.003,0,0.007,0,0.010L 160,287.991 c0,0.003,0,0.006,0,0.010c0,8.836-7.164,16-16,16
		c-8.836,0-16-7.164-16-16l0,0 l0-224 C 128,55.163, 135.164,48, 144,48zM 240,48c 8.837,0, 16,7.163, 16,16c0,0.003,0,0.007,0,0.010L 256,287.991 c0,0.003,0,0.006,0,0.010c0,8.836-7.164,16-16,16
		c-8.836,0-16-7.164-16-16l0,0 l0-224 C 224,55.163, 231.164,48, 240,48zM 336,48c 8.837,0, 16,7.163, 16,16c0,0.003,0,0.007,0,0.010L 352,287.991 c0,0.003,0,0.006,0,0.010c0,8.836-7.163,16-16,16
		c-8.836,0-16-7.164-16-16l0,0 l0-224 C 320,55.163, 327.164,48, 336,48zM 351.987,415.46C 351.99,415.64, 352,415.819, 352,416L 352,448 c0,17.6-14.4,32-32,32L 160,480 c-17.6,0-32-14.4-32-32l0-32 
		c0-0.181, 0.011-0.36, 0.014-0.54L0,415.46 L0,384 l 32,0 l0-352 c0-35.2, 28.8-64, 64-64l 288,0 c 35.2,0, 64,28.8, 64,64L 448,384 l 32,0 L 480,415.46 L 351.987,415.46 z M 160,447.943
		c 0.017,0.020, 0.038,0.041, 0.057,0.057l 159.885,0 c 0.020-0.017, 0.041-0.038, 0.058-0.058l0-31.885 c-0.017-0.020-0.038-0.041-0.058-0.057
		L 160.057,416 c-0.020,0.017-0.041,0.038-0.057,0.057L 160,447.943 z M 416,32c0-8.477-3.348-16.493-9.428-22.572
		C 400.493,3.348, 392.477,0, 384,0L 96,0 c-8.477,0-16.493,3.348-22.573,9.428C 67.348,15.507, 64,23.523, 64,32L 64,384 l 352,0 L 416,32 z" data-tags="remove, delete, trashcan, recycle bin" />
<glyph unicode="&#xe060;" d="M 464,320L 352,320 L 352,384 c0,17.6-14.4,32-32,32L 192,416 c-17.602,0-32-14.4-32-32l0-64 L 48,320 c-26.4,0-48-21.6-48-48l0-224 c0-26.4, 21.6-48, 48-48
	l 416,0 c 26.398,0, 48,21.6, 48,48L 512,272 C 512,298.4, 490.401,320, 464,320z M 192,383.943c 0.016,0.020, 0.037,0.041, 0.058,0.057l 127.887,0 
	c 0.021-0.018, 0.040-0.038, 0.058-0.057L 320.003,320 L 192,320 L 192,383.943 z" data-tags="briefcase, portfolio, suitcase, work, job, employee" />
<glyph unicode="&#xe061;" d="M 480,352L 352,352 L 352,384 c0,17.6-14.4,32-32,32L 192,416 c-17.602,0-32-14.4-32-32l0-32 L 32,352 C 14.4,352,0,337.6,0,320l0-256 
	c0-17.601, 14.398-32, 32-32l 448,0 c 17.6,0, 32,14.399, 32,32L 512,320 C 512,337.6, 497.6,352, 480,352z M 192,383.942
	c 0.017,0.020, 0.037,0.041, 0.057,0.058l 127.886,0 c 0.021-0.017, 0.041-0.038, 0.059-0.058L 320.002,352 L 192,352 L 192,383.942 z M 480,224l-64,0 l0-48 
	c0-8.801-7.2-16-16-16l-32,0 c-8.802,0-16,7.199-16,16l0,48 L 160,224 l0-48 c0-8.801-7.2-16-16-16l-32,0 c-8.801,0-16,7.199-16,16l0,48 L 32,224 l0,32 l 448,0 
	L 480,224 z" data-tags="briefcase, portfolio, suitcase, work, job, employee" />
<glyph unicode="&#xe062;" d="M 436.304,320L 352,448L 160,448 L 75.695,320L0,320 l0-224 l 64,0 l0-80 c0-8.8, 7.199-16, 16-16l 64,0 c 8.8,0, 16,7.2, 16,16l0,80 l 192,0 l0-80 
	c0-8.8, 7.198-16, 16-16l 64,0 c 8.8,0, 16,7.2, 16,16l0,80 l 64,0 L 512,320 L 436.304,320 z M 177.24,416l 157.519,0 l 63.228-96L 114.012,320 L 177.24,416z M 128,146.745
	c-24.994,0-45.256,20.261-45.256,45.255s 20.263,45.254, 45.256,45.254c 24.992,0, 45.254-20.261, 45.254-45.254
	C 173.255,167.006, 152.993,146.745, 128,146.745z M 384,146.745c-24.993,0-45.257,20.261-45.257,45.255s 20.263,45.254, 45.257,45.254
	c 24.991,0, 45.255-20.261, 45.255-45.254C 429.255,167.006, 408.991,146.745, 384,146.745z" data-tags="cars, travel, auto" />
<glyph unicode="&#xe063;" d="M 480,224c0,0-16.279,192-32,224S 320,480, 256,480S 79.72,480, 64,448S 32,224, 32,224l0-192 l 64,0 l0-32 c0-17.673, 14.327-32, 32-32
	s 32,14.327, 32,32l0,32 l 192,0 l0-32 c0-17.673, 14.327-32, 32-32c 17.674,0, 32,14.327, 32,32l0,32 l 64,0 L 480,224 z M 160,448l 192,0 l0-32 L 160,416 L 160,448 z
	 M 105.058,279.23c 6.083,53.329, 10.847,81.788, 13.844,96.464c 8.586,2.002, 23.196,4.479, 46.867,6.145C 196.495,384, 229.49,384, 256,384
	s 59.505,0, 90.231-2.161c 23.671-1.665, 38.281-4.142, 46.867-6.145c 2.996-14.676, 7.761-43.136, 13.844-96.465
	c 0.903-7.917, 1.759-15.718, 2.559-23.23L 102.499,255.999 C 103.299,263.512, 104.155,271.313, 105.058,279.23z M 128,113.6
	c-25.626,0-46.4,20.773-46.4,46.4c0,25.626, 20.773,46.4, 46.4,46.4s 46.4-20.774, 46.4-46.4C 174.4,134.373, 153.627,113.6, 128,113.6z
	 M 384,113.6c-25.627,0-46.399,20.773-46.399,46.4c0,25.626, 20.772,46.4, 46.399,46.4s 46.4-20.774, 46.4-46.4
	C 430.401,134.373, 409.627,113.6, 384,113.6z" data-tags="bus, school, vehicle" />
<glyph unicode="&#xe064;" d="M 256,448L 32,352L 256,256L 480,352 	zM 32,64L 224-16L 224,208L 32,288 	zM 288-16L 480,64L 480,288L 288,208 	z" data-tags="cube, box, 3d, miscellaneous" />
<glyph unicode="&#xe065;" d="M 240,448L0,352l0-224 l 240-128l 240,128L 480,352 L 240,448z M 224,44.8L 32,147.2L 32,302.933 l 192-102.4L 224,44.8 z M 41.498,334.134L 240,413.535
	l 198.502-79.401L 240,228.267L 41.498,334.134z M 448,147.2L 256,44.8L 256,200.533 l 192,102.4L 448,147.2 z" data-tags="cube, box, 3d, miscellaneous" />
<glyph unicode="&#xe066;" d="M 479.165,351.875L 394.94,351.875 c-21.715,0.033-43.348,1.503-22.252,38.729c 21.138,37.3, 36.059,89.521-48.802,89.521 c-84.857,0-69.935-52.221-48.797-89.521c 21.096-37.226-0.538-38.694-22.255-38.729l-91.938,0 c-18.060,0-32.835-14.778-32.835-32.834 l0-102.189 c0-21.756, 5.904-43.513-31.393-22.378C 59.372,215.611,0,230.531,0,145.672c0-84.854, 59.37-69.935, 96.67-48.798 c 37.297,21.137, 31.393-0.62, 31.393-22.38l0-73.783 c0-18.062, 14.777-32.835, 32.835-32.835l 91.811,0 c 21.76,0, 43.517,8.706, 22.382,46.004 c-21.137,37.295-36.061,89.519, 48.797,89.519c 84.858,0, 69.938-52.221, 48.8-89.519c-21.135-37.299, 0.623-46.005, 22.381-46.005l 84.096,0 c 18.062,0, 32.837,14.777, 32.837,32.835L 512.002,319.042 C 512.002,337.099, 497.227,351.875, 479.165,351.875z" data-tags="puzzle, piece, app, addon, extension" />
<glyph unicode="&#xe067;" d="M0,352l0-256 l 160,0 l 96,96l 96-96l 160,0 L 512,352 L0,352 z M 224,224l-64-64L 32,160 L 32,288 l 192,0 L 224,224 z M 480,160L 352,160 l-64,64l0,64 l 192,0 L 480,160 z" data-tags="glasses, 3d glasses" />
<glyph unicode="&#xe068;" d="M 352,448l0-48 l 80-144L 80,256 l 80,144L 160,448 L0,256l0-256 l 160,0 l 96,96l 96-96l 160,0 L 512,256 L 352,448z M 224,128l-64-64L 32,64 L 32,192 l 192,0 L 224,128 z M 480,64L 352,64 
	l-64,64l0,64 l 192,0 L 480,64 z" data-tags="glasses, 3d" />
<glyph unicode="&#xe069;" d="M 480,384L 480,416L 256,352L 32,416L 32,384L 192,320L 192,192L 128-32L 160-32L 256,192L 352-32L 384-32L 320,192L 320,320 	zM 208,432A48,48 10260 1 1 304,432A48,48 10260 1 1 208,432z" data-tags="accessibility" />
<glyph unicode="&#xe06a;" d="M 160,16c-61.856,0-112,50.145-112,112c0,43.848, 25.2,81.803, 61.903,100.19l-21.47,42.938C 36.001,244.86,0,190.639,0,128
		c0-88.366, 71.634-160, 160-160s 160,71.634, 160,160l-48,0 C 272,66.145, 221.856,16, 160,16zM 480,128L 448,96L 338.743,205.255L 224,205.255L 224,256L 352,256L 352,288L 224,288L 224,352L 160,352L 160,160L 320,160L 448,32L 512,96 	zM 144,432A48,48 10260 1 1 240,432A48,48 10260 1 1 144,432z" data-tags="accessibility, disabled" />
<glyph unicode="&#xe06b;" d="M 256,480C 114.844,480,0,365.162,0,223.999C0,82.838, 114.844-32, 256-32c 141.155,0, 256,114.838, 256,255.999
		C 512,365.162, 397.156,480, 256,480z M 256,24.889c-109.789,0-199.11,89.323-199.11,199.11c0,109.79, 89.322,199.112, 199.11,199.112
		s 199.11-89.322, 199.11-199.112C 455.113,114.212, 365.788,24.889, 256,24.889zM 256,366.223c-78.422,0-142.224-63.801-142.224-142.224c0-78.421, 63.801-142.224, 142.224-142.224
		s 142.223,63.803, 142.223,142.224C 398.223,302.422, 334.423,366.223, 256,366.223z M 256,138.666
		c-47.058,0-85.334,38.277-85.334,85.333c0,47.058, 38.276,85.335, 85.334,85.335c 47.056,0, 85.335-38.277, 85.335-85.335
		C 341.335,176.943, 303.056,138.666, 256,138.666zM 224,224A32,32 10260 1 1 288,224A32,32 10260 1 1 224,224z" data-tags="target, goal" />
<glyph unicode="&#xe06c;" d="M 256,480C 114.615,480,0,365.385,0,224s 114.615-256, 256-256s 256,114.615, 256,256S 397.385,480, 256,480z M 391.765,88.235
	C 363.16,59.631, 327.117,41.174, 288,34.648L 288,128 l-64,0 l0-93.352 c-39.117,6.525-75.16,24.982-103.765,53.587
	C 91.632,116.84, 73.174,152.883, 66.649,192L 160,192 l0,64 L 66.649,256 c 6.525,39.117, 24.983,75.16, 53.587,103.765
	C 148.84,388.369, 184.883,406.826, 224,413.352L 224,320 l 64,0 L 288,413.352 c 39.117-6.525, 75.16-24.983, 103.765-53.587
	c 28.604-28.604, 47.062-64.647, 53.587-103.765L 352,256 l0-64 l 93.352,0 C 438.826,152.883, 420.369,116.84, 391.765,88.235z" data-tags="target, goal, location" />
<glyph unicode="&#xe06d;" d="M 192,480L0,224L 192,224L 64-32L 512,288L 256,288L 448,480 z" data-tags="lightning, power" />
<glyph unicode="&#xe06e;" d="M 352,480L 64,192L 240,192L 160-32L 448,256L 272,256 z" data-tags="power, lightning" />
<glyph unicode="&#xe06f;" d="M0,128L 160,384L 320,224L 512,352L 352,64L 192,224 z" data-tags="power, lightning, bolt" />
<glyph unicode="&#xe070;" d="M 384,416l-64,0 L 320,448 c0,17.6-14.4,32-32,32l-64,0 c-17.602,0-32-14.4-32-32l0-32 l-64,0 l0-64 l 256,0 L 384,416 z M 288,416l-64,0 L 224,447.943 
		c 0.017,0.019, 0.036,0.039, 0.057,0.057l 63.884,0 c 0.021-0.018, 0.041-0.038, 0.059-0.057L 288,416 L 288,416zM 432,416l-32,0 l0-32 l 16,0 l0-384 L 96,0 L 96,384 l 16,0 L 112,416 L 80,416 c-8.801,0-16-7.2-16-16l0-416 c0-8.8, 7.199-16, 16-16l 352,0 c 8.8,0, 16,7.2, 16,16L 448,400 
		C 448,408.8, 440.8,416, 432,416z" data-tags="clipboard, board" />
<glyph unicode="&#xe071;" d="M 384,416l-64,0 L 320,448 c0,17.6-14.4,32-32,32l-64,0 c-17.602,0-32-14.4-32-32l0-32 l-64,0 l0-64 l 256,0 L 384,416 z M 288,416l-64,0 L 224,447.943 
		c 0.017,0.019, 0.036,0.039, 0.057,0.057l 63.884,0 c 0.021-0.018, 0.041-0.038, 0.059-0.057L 288,416 L 288,416zM 432,416l-32,0 l0-32 l 16,0 l0-384 L 96,0 L 96,384 l 16,0 L 112,416 L 80,416 c-8.801,0-16-7.2-16-16l0-416 c0-8.8, 7.199-16, 16-16l 352,0 c 8.8,0, 16,7.2, 16,16L 448,400 
		C 448,408.8, 440.8,416, 432,416zM 128,288L 384,288L 384,256L 128,256zM 128,192L 384,192L 384,160L 128,160zM 128,96L 384,96L 384,64L 128,64z" data-tags="clipboard, board, list" />
<glyph unicode="&#xe072;" d="M0,448L 320,448L 320,384L0,384zM0,320L 288,320L 288,256L0,256zM0,192L 224,192L 224,128L0,128zM0,64L 160,64L 160,0L0,0zM 416,480l-64,0 l0-356.559 c-10.010,2.949-20.778,4.559-32,4.559c-53.020,0-96-35.817-96-80s 42.98-80, 96-80s 96,35.817, 96,80L 416,384 l 96-32
		L 512,416 L 416,480z" data-tags="playlist, music, songs" />
<glyph unicode="&#xe073;" d="M0,480L 224,480L 224,256L0,256zM 288,480L 512,480L 512,256L 288,256zM0,192L 224,192L 224-32L0-32zM 288,192L 512,192L 512-32L 288-32z" data-tags="grid view, icons" />
<glyph unicode="&#xe074;" d="M 480,128l-51.741,0 L 308.546,327.522C 315.536,333.404, 320,342.205, 320,352L 320,416 c0,17.6-14.4,32-32,32l-64,0 c-17.6,0-32-14.4-32-32
	l0-64 c0-9.795, 4.464-18.596, 11.455-24.478L 83.741,128L 32,128 c-17.6,0-32-14.4-32-32l0-64 c0-17.6, 14.4-32, 32-32l 64,0 c 17.6,0, 32,14.4, 32,32l0,64 
	c0,9.795-4.464,18.596-11.455,24.478L 236.26,320l 39.482,0 l 119.714-199.522C 388.465,114.596, 384,105.795, 384,96l0-64 
	c0-17.6, 14.4-32, 32-32l 64,0 c 17.6,0, 32,14.4, 32,32l0,64 C 512,113.6, 497.6,128, 480,128z" data-tags="tree view, category, graph" />
<glyph unicode="&#xe075;" d="M 512,151.229c0,41.045-28.339,75.45-66.498,84.74C 443.881,300.319, 391.273,352, 326.571,352
	c-37.896,0-71.633-17.747-93.427-45.366c-12.221,15.799-31.345,25.98-52.854,25.98c-36.905,0-66.821-29.937-66.821-66.861
	c0-3.218, 0.24-6.38, 0.682-9.477c-5.611,1.012-11.383,1.569-17.285,1.569C 43.367,257.846,0,214.452,0,160.924
	C0,107.393, 43.367,64, 96.865,64l 328.131,0 l0,0.006 C 473.065,64.098, 512,103.112, 512,151.229z" data-tags="cloud, weather" />
<glyph unicode="&#xe076;" d="M 445.502,299.97C 443.881,364.319, 391.273,416, 326.571,416c-37.896,0-71.633-17.747-93.427-45.366
	c-12.221,15.799-31.345,25.98-52.854,25.98c-36.905,0-66.821-29.937-66.821-66.861c0-3.218, 0.24-6.38, 0.682-9.477
	c-5.611,1.012-11.383,1.569-17.285,1.569C 43.367,321.846,0,278.452,0,224.924C0,171.393, 43.367,128, 96.865,128l 49.88,0 L 256,18.745
	L 365.255,128l 59.741,0 l0,0.006 C 473.065,128.098, 512,167.112, 512,215.229C 512,256.274, 483.661,290.679, 445.502,299.97z M 256,64l-96,96
	l 64,0 l0,96 l 64,0 l0-96 l 64,0 L 256,64z" data-tags="cloud, download" />
<glyph unicode="&#xe077;" d="M 448,128L 448,64L 64,64L 64,128L0,128L0,0L 512,0L 512,128 	zM 384,288L 288,288L 288,448L 224,448L 224,288L 128,288L 256,96 	z" data-tags="download, arrow" />
<glyph unicode="&#xe078;" d="M 446.134,286.755C 447.356,292.31, 448,298.079, 448,304c0,44.183-35.817,80-80,80c-7.111,0-14.007-0.934-20.566-2.676
	C 335.035,420, 298.789,448, 256,448c-43.674,0-80.527-29.168-92.163-69.085C 152.466,382.226, 140.441,384, 128,384C 57.308,384,0,326.692,0,256
	c0-70.694, 57.308-128, 128-128l 64,0 l0-96 l 128,0 l0,96 l 112,0 c 44.183,0, 80,35.816, 80,80C 512,247.36, 483.573,280.081, 446.134,286.755z M 288,160l0-96 
	l-64,0 l0,96 l-80,0 l 112,112l 112-112L 288,160 z" data-tags="upload" />
<glyph unicode="&#xe079;" d="M 448,128L 448,64L 64,64L 64,128L0,128L0,0L 512,0L 512,128 	zM 128,256L 224,256L 224,96L 288,96L 288,256L 384,256L 256,448 	z" data-tags="upload, arrow, load, export" />
<glyph unicode="&#xe07a;" d="M 160,128c 8.8-8.8, 23.637-8.363, 32.971,0.971L 351.030,287.029C 360.364,296.363, 360.8,311.2, 352,320
		s-23.637,8.363-32.971-0.971L 160.971,160.971C 151.637,151.637, 151.2,136.8, 160,128zM 238.444,142.444c 2.28-4.525, 3.495-9.58, 3.495-14.848c0-8.808-3.372-17.030-9.496-23.154l-81.691-81.691
		c-6.124-6.124-14.347-9.496-23.154-9.496s-17.030,3.372-23.154,9.496l-49.691,49.691c-6.124,6.124-9.496,14.347-9.496,23.154
		s 3.372,17.030, 9.496,23.154l 81.691,81.691c 6.124,6.124, 14.347,9.497, 23.154,9.497c 5.268,0, 10.322-1.215, 14.848-3.495l 32.669,32.669
		c-13.935,10.705-30.72,16.080-47.517,16.080c-19.993,0-39.986-7.583-55.154-22.751l-81.691-81.691
		c-30.335-30.335-30.335-79.974,0-110.309l 49.691-49.691C 87.611-24.416, 107.604-32, 127.597-32
		c 19.994,0, 39.987,7.584, 55.154,22.751l 81.691,81.691c 27.91,27.91, 30.119,72.149, 6.672,102.672L 238.444,142.444zM 489.249,407.558l-49.691,49.691C 424.391,472.417, 404.398,480, 384.404,480c-19.993,0-39.986-7.583-55.154-22.751l-81.691-81.691
		c-27.91-27.91-30.119-72.149-6.671-102.671l 32.669,32.67c-2.279,4.525-3.494,9.58-3.494,14.847c0,8.808, 3.372,17.030, 9.496,23.154
		l 81.691,81.691c 6.124,6.124, 14.347,9.497, 23.154,9.497s 17.030-3.373, 23.154-9.497l 49.691-49.691
		c 6.124-6.124, 9.496-14.347, 9.496-23.154s-3.372-17.030-9.496-23.154l-81.691-81.691c-6.124-6.124-14.347-9.496-23.154-9.496
		c-5.268,0-10.322,1.215-14.848,3.495l-32.669-32.669c 13.936-10.705, 30.72-16.080, 47.517-16.080c 19.994,0, 39.987,7.584, 55.154,22.751
		l 81.691,81.691C 519.584,327.584, 519.584,377.223, 489.249,407.558z" data-tags="link, chain, url, uri, anchor" />
<glyph unicode="&#xe07b;" d="M 238.444,142.443c 2.28-4.524, 3.495-9.579, 3.495-14.848c0-8.808-3.372-17.029-9.496-23.154l-81.69-81.69
		c-6.124-6.124-14.348-9.496-23.154-9.496s-17.030,3.372-23.154,9.496l-49.69,49.69c-6.124,6.125-9.496,14.348-9.496,23.154
		s 3.372,17.030, 9.496,23.154l 81.69,81.691c 6.124,6.123, 14.348,9.496, 23.154,9.496c 5.269,0, 10.322-1.215, 14.848-3.494l 32.669,32.668
		c-13.935,10.705-30.72,16.080-47.517,16.080c-19.993,0-39.986-7.583-55.154-22.751l-81.69-81.691
		c-30.335-30.335-30.335-79.975,0-110.309l 49.69-49.691c 15.167-15.166, 35.16-22.75, 55.153-22.75
		c 19.994,0, 39.987,7.584, 55.154,22.751l 81.69,81.69c 27.91,27.91, 30.119,72.149, 6.672,102.673L 238.444,142.443zM 489.248,407.558l-49.69,49.691C 424.391,472.417, 404.398,480, 384.404,480c-19.993,0-39.985-7.583-55.153-22.751l-81.691-81.691
		c-27.91-27.91-30.119-72.149-6.671-102.671l 32.669,32.67c-2.279,4.525-3.494,9.58-3.494,14.847c0,8.808, 3.372,17.030, 9.496,23.154
		l 81.691,81.691c 6.123,6.124, 14.347,9.497, 23.153,9.497c 8.808,0, 17.030-3.373, 23.154-9.497l 49.69-49.691
		c 6.124-6.124, 9.496-14.347, 9.496-23.154c0-8.807-3.372-17.030-9.496-23.154l-81.69-81.691c-6.124-6.124-14.347-9.496-23.154-9.496
		c-5.268,0-10.322,1.215-14.848,3.495l-32.669-32.669c 13.936-10.705, 30.72-16.080, 47.517-16.080c 19.994,0, 39.987,7.584, 55.154,22.752
		l 81.69,81.69C 519.584,327.584, 519.584,377.223, 489.248,407.558zM 116.684,340.688L 20.687,436.685L 43.315,459.313L 139.312,363.316zM 192,480L 224,480L 224,384L 192,384zM0,288L 96,288L 96,256L0,256zM 395.316,107.312L 491.314,11.314L 468.686-11.314L 372.688,84.684zM 288,64L 320,64L 320-32L 288-32zM 416,192L 512,192L 512,160L 416,160z" data-tags="link, chain, unlink" />
<glyph unicode="&#xe07c;" d="M 432.311,476.862L 303.69,451.138C 295.061,449.412, 288,455.2, 288,464S 280.94,478.588, 272.311,476.862L 128,448L 128,480 L 64,480 l0-512 l 64,0 L 128,224 
	l 144.311,28.862C 280.94,254.588, 288,248.8, 288,240s 7.061-14.588, 15.689-12.862l 128.621,25.725C 440.94,254.588, 448,263.2, 448,272L 448,464 
	C 448,472.8, 440.94,478.588, 432.311,476.862z" data-tags="flag, report, mark" />
<glyph unicode="&#xe07d;" d="M 254.059,418.977C 205.881,476.227, 169.369,480, 96,480l0-256 c 128.267,64, 142.636-8.335, 223.506-1.023
		C 399.234,230.197, 467.031,291.564, 512,352C 384.644,322.547, 320.54,339.977, 254.059,418.977zM0,480L 64,480L 64-32L0-32z" data-tags="flag, report, mark" />
<glyph unicode="&#xe07e;" d="M 348.916,316.476l-32.476,32.461L 154.035,186.566c-26.907-26.896-26.907-70.524,0-97.422
	c 26.902-26.896, 70.53-26.896, 97.437,0l 194.886,194.854c 44.857,44.831, 44.857,117.531,0,162.363
	c-44.833,44.852-117.556,44.852-162.391,0L 79.335,241.788l 0.017-0.016c-0.145-0.152-0.306-0.288-0.438-0.423
	c-62.551-62.548-62.551-163.928,0-226.453c 62.527-62.528, 163.934-62.528, 226.494,0c 0.137,0.137, 0.258,0.284, 0.41,0.438l 0.016-0.017
	l 139.666,139.646l-32.493,32.46L 273.35,47.792l-0.008,0 c-0.148-0.134-0.282-0.285-0.423-0.422
	c-44.537-44.529-116.99-44.529-161.538,0c-44.531,44.521-44.531,116.961,0,161.489c 0.152,0.152, 0.302,0.291, 0.444,0.423l-0.023,0.030
	l 204.64,204.583c 26.856,26.869, 70.572,26.869, 97.443,0c 26.856-26.867, 26.856-70.574,0-97.42L 218.999,121.625
	c-8.968-8.961-23.527-8.961-32.486,0c-8.947,8.943-8.947,23.516,0,32.46L 348.916,316.476z" data-tags="attachment, paperclip" />
<glyph unicode="&#xe07f;" d="M 256,368C 128,368, 0.001,256.001,0,224l0,0c 0.001-32.001, 128-144, 256-144s 255.997,111.999, 256,144l0,0
		C 511.997,256.001, 384,368, 256,368z M 256,128c-53.021,0-96,42.98-96,96c0,53.020, 42.979,96, 96,96c 53.020,0, 96-42.98, 96-96
		C 352,170.98, 309.020,128, 256,128zM 224,224A32,32 10260 1 1 288,224A32,32 10260 1 1 224,224z" data-tags="eye, views, vision" />
<glyph unicode="&#xe080;" d="M 256,384C 144.341,384, 47.559,318.979,0,224c 47.559-94.979, 144.341-160, 256-160c 111.657,0, 208.439,65.021, 256,160
	C 464.442,318.979, 367.657,384, 256,384z M 256,177.811c-25.51,0-46.189,20.682-46.189,46.189s 20.681,46.189, 46.189,46.189
	s 46.188-20.681, 46.188-46.189C 302.19,198.49, 281.509,177.811, 256,177.811z M 121.171,135.361
	C 86.304,157.602, 57.231,188.037, 36.35,224c 20.88,35.963, 49.953,66.397, 84.821,88.639c 19.81,12.635, 41.182,22.406, 63.521,29.043
	c 11.229,3.334, 22.684,5.862, 34.281,7.586C 164.881,333.302, 125.4,283.266, 125.4,224c0-59.266, 39.481-109.303, 93.575-125.268
	c-11.6,1.723-23.052,4.25-34.282,7.586C 162.353,112.955, 140.981,122.727, 121.171,135.361z M 390.827,135.361
	c-19.811-12.637-41.183-22.406-63.521-29.043c-11.229-3.336-22.685-5.862-34.28-7.586C 347.117,114.697, 386.6,164.734, 386.6,224
	c0,59.266-39.481,109.303-93.574,125.268c 11.598-1.724, 23.051-4.252, 34.28-7.586c 22.341-6.637, 43.713-16.408, 63.521-29.043
	c 34.868-22.24, 63.94-52.676, 84.822-88.639C 454.769,188.037, 425.697,157.604, 390.827,135.361z" data-tags="eye, views, vision" />
<glyph unicode="&#xe081;" d="M 96,480L 96-32L 256,128L 416-32L 416,480 z" data-tags="bookmark, favorite, ribbon" />
<glyph unicode="&#xe082;" d="M 96,480l0-512 l 160,160l 160-160L 416,480 L 96,480 z M 384,45.255l-128,128l-128-128L 128,448 l 256,0 L 384,45.255 z" data-tags="bookmark, favorite, ribbon" />
<glyph unicode="&#xe083;" d="M 256,370.437l 30-92.329l 7.185-22.111l 23.249,0 l 97.081,0 l-78.541-57.063l-18.809-13.666l 7.185-22.111l 29.999-92.329
	l-78.539,57.062L 256,141.554l-18.809-13.665l-78.54-57.062l 30,92.329l 7.184,22.111l-18.809,13.666l-78.541,57.063l 97.082,0 l 23.25,0 
	L 226,278.107L 256,370.437 M 256,473.991l-60.433-185.995L0,287.996 l 158.217-114.952L 97.783-12.951L 256,102l 158.216-114.95l-60.433,185.994
	L 512,287.996L 316.434,287.996 L 256,473.991L 256,473.991z" data-tags="star, rate, favorite, bookmark" />
<glyph unicode="&#xe084;" d="M 512,287.996L 316.434,287.996 L 256,473.991l-60.433-185.995L0,287.996 l 158.217-114.952L 97.783-12.951L 256,102l 158.216-114.95l-60.433,185.994
	L 512,287.996z M 256,141.554L 256,370.437 l 37.185-114.44l 120.33,0 l-97.35-70.729l 37.184-114.44L 256,141.554z" data-tags="star, rate, half" />
<glyph unicode="&#xe085;" d="M 512,287.996L 316.434,287.996L 256,473.991L 195.567,287.996L0,287.996L 158.217,173.044L 97.783-12.951L 256,102L 414.216-12.95L 353.783,173.044 z" data-tags="star, rate, favorite, bookmark" />
<glyph unicode="&#xe086;" d="M 472.166,408.167c-53.111,53.111-139.222,53.111-192.333,0c-9.729-9.729-17.669-20.569-23.833-32.107
	c-6.165,11.538-14.104,22.378-23.833,32.107c-53.111,53.111-139.222,53.111-192.333,0c-53.111-53.111-53.111-139.222,0-192.333
	L 256,0l 216.166,215.833C 525.277,268.944, 525.277,355.055, 472.166,408.167z" data-tags="heart, like, love, bookmark" />
<glyph unicode="&#xe087;" d="M 376,416c 27.779,0, 53.896-10.818, 73.539-30.46c 40.549-40.55, 40.549-106.529, 0.017-147.061L 256,45.22L 62.46,238.46
	c-40.549,40.55-40.549,106.529,0,147.079C 82.104,405.182, 108.22,416, 136,416c 27.779,0, 53.896-10.818, 73.538-30.459
	c 7.288-7.289, 13.424-15.552, 18.237-24.561L 256,308.153l 28.224,52.826c 4.813,9.009, 10.949,17.272, 18.236,24.56
	C 322.104,405.182, 348.221,416, 376,416 M 376,448c-34.806,0-69.611-13.277-96.167-39.833c-9.729-9.729-17.669-20.569-23.833-32.107
	c-6.165,11.538-14.104,22.378-23.833,32.107C 205.611,434.722, 170.805,448, 136,448c-34.806,0-69.611-13.277-96.167-39.833
	c-53.111-53.111-53.111-139.222,0-192.333L 256,0l 216.166,215.833c 53.111,53.111, 53.111,139.222,0,192.333
	C 445.61,434.722, 410.805,448, 376,448L 376,448z" data-tags="heart, like, love, bookmark" />
<glyph unicode="&#xe088;" d="M 446.141,117.407c 0.852,10.12, 21.951,23.983, 21.934,34.12c-0.049,10.643-18.482,28.455-17.086,39.007
	c 1.104,8.37, 16.555,20.793, 17.059,29.245c 0.898,15.353-19.852,45.4-34.119,51.174c-22.643,9.168-137.705,4.883-137.705,4.883
	c-11.246,19.653, 20.035,68.201, 28.639,89.162c 12.631,30.719, 10.504,71.466-5.471,92.399C 299.879,482.98, 264.063,484.68, 263.325,473.238
	c-5.336-83.010-21.229-106.053-42.505-122.455c-12.786-9.863-23.954-18.497-29.854-33.528
	c-36.261-92.354-65.52-122.037-79.528-125.254L 64,192.001 l0-198.885 l 145.721-19.501c0,0, 133.455-12.632, 175.482,0
	c 13.223,3.966, 36.039,23.818, 41.432,36.556c 3.074,7.315-1.197,24.622, 2.443,31.677c 5.371,10.458, 28.051,23.559, 28.027,37.771
	C 457.082,89.754, 445.276,107.298, 446.141,117.407z" data-tags="thumbs up, vote, up, rate, approve, like" />
<glyph unicode="&#xe089;" d="M 468.051,228.233c-0.5,8.447-15.959,20.854-17.063,29.237c-1.398,10.544, 17.047,28.369, 17.076,39
	c 0.023,10.137-21.072,24.002-21.93,34.127c-0.861,10.104, 10.953,27.644, 10.969,37.781c 0.025,14.216-22.658,27.314-28.033,37.771
	c-3.631,7.059, 0.643,24.368-2.443,31.681c-5.385,12.739-28.203,32.595-41.414,36.556c-42.035,12.629-175.483,0-175.483,0L 64,454.89
	L 64,256 l 47.445,0 c 13.993-7.782, 43.261-32.282, 79.526-124.636c 5.9-15.034, 17.073-24.288, 29.854-34.143
	c 21.282-16.406, 37.157-39.442, 42.493-122.459c 0.743-11.443, 36.557-9.74, 56.064,15.837c 15.975,20.931, 18.109,61.682, 5.484,92.402
	c-8.604,20.962-39.895,69.511-28.643,89.171c0,0, 115.066-4.285, 137.701,4.871C 448.192,182.817, 468.942,212.873, 468.051,228.233z" data-tags="thumbs down, vote, down, rate, dislike" />
<glyph unicode="&#xe08a;" d="M 256.001,480C 114.615,480,0,365.386,0,224c0-141.385, 114.614-256, 256.001-256C 397.386-32, 512,82.615, 512,224
	C 512,365.386, 397.386,480, 256.001,480z M 336.001,365.256c 12.495,0, 22.627-20.262, 22.627-45.256c0-24.993-10.132-45.255-22.627-45.255
	c-12.498,0-22.629,20.262-22.629,45.255C 313.372,344.994, 323.503,365.256, 336.001,365.256z M 176.001,365.256
	c 12.496,0, 22.627-20.262, 22.627-45.256c0-24.993-10.131-45.255-22.627-45.255c-12.498,0-22.628,20.262-22.628,45.255
	C 153.373,344.994, 163.503,365.256, 176.001,365.256z M 256.001,64C 172.566,64, 103.289,133.936, 96,223.152
	c 46.885-27.057, 102.025-42.532, 160.001-42.532c 57.974,0, 113.114,15.403, 160,42.46C 408.712,133.861, 339.435,64, 256.001,64z" data-tags="happy, smiley, emoticon" />
<glyph unicode="&#xe08b;" d="M 256,480C 114.615,480,0,365.385,0,224s 114.612-256, 256-256c 141.385,0, 256,114.615, 256,256S 397.385,480, 256,480z M 352,352
	c 17.673,0, 32-14.327, 32-32c0-17.673-14.327-32-32-32s-32,14.327-32,32C 320,337.673, 334.327,352, 352,352z M 160,352
	c 17.673,0, 32-14.327, 32-32c0-17.673-14.327-32-32-32s-32,14.327-32,32C 128,337.673, 142.327,352, 160,352z M 256,64
	c-58.255,0-109.232,31.137-137.212,77.672l 27.441,16.467C 168.612,120.909, 209.396,96, 256,96
	c 46.604,0, 87.386,24.909, 109.771,62.139l 27.441-16.467C 365.23,95.137, 314.255,64, 256,64z" data-tags="smiley, emoticon, happy" />
<glyph unicode="&#xe08c;" d="M 256,480C 114.615,480,0,365.385,0,224s 114.613-256, 256-256c 141.385,0, 256,114.615, 256,256S 397.385,480, 256,480z M 320,96L 192,96 l0,32 
	l 128,0 L 320,96 z M 352,352c 17.673,0, 32-14.327, 32-32c0-17.673-14.327-32-32-32s-32,14.327-32,32C 320,337.673, 334.327,352, 352,352z M 160,352
	c 17.673,0, 32-14.327, 32-32c0-17.673-14.327-32-32-32s-32,14.327-32,32C 128,337.673, 142.327,352, 160,352z" data-tags="neutral, emoticon, smiley" />
<glyph unicode="&#xe08d;" d="M 256,480C 114.615,480,0,365.385,0,224s 114.615-256, 256-256s 256,114.615, 256,256S 397.385,480, 256,480z M 288,192l0-160 l-64,0 L 224,192 L 64,192 l0,64 
	l 160,0 L 224,416 l 64,0 l0-160 l 160,0 l0-64 L 288,192 z" data-tags="plus, add, new, bookmark, like, favorite" />
<glyph unicode="&#xe08e;" d="M 256,480C 114.615,480,0,365.385,0,224s 114.615-256, 256-256s 256,114.615, 256,256S 397.385,480, 256,480z M 64,192l0,64 l 384,0 l0-64 L 64,192 z" data-tags="minus, remove, error, dislike, delete" />
<glyph unicode="&#xe08f;" d="M 256,480C 114.615,480,0,365.385,0,224s 114.615-256, 256-256s 256,114.615, 256,256S 397.385,480, 256,480z M 256,32
	c-26.51,0-48,21.49-48,48s 21.49,48, 48,48s 48-21.49, 48-48S 282.51,32, 256,32z M 368.064,302.971
	c-2.495-8.446-5.956-16.459-10.406-24.007c-4.445-7.567-9.79-14.732-16.019-21.476c-6.229-6.771-13.061-13.267-20.541-19.486
	c-8.363-6.936-15.080-13.076-20.146-18.418c-5.057-5.328-8.488-9.967-10.269-13.867c-3.339-7.174-5.853-24.363-2.691-45.717l-63.959,0 
	c-0.525,37.938, 5.058,56.501, 11.688,70.258c 6.764,13.884, 19.377,28.554, 37.888,44.031c 8.011,6.567, 14.236,12.408, 18.675,17.479
	c 4.449,5.067, 7.841,9.599, 10.143,13.604c 2.307,4, 3.729,7.734, 4.271,11.211c 0.53,3.461, 0.793,7.056, 0.793,10.799
	c0,6.938-1.199,13.337-3.603,19.205c-2.396,5.883-5.824,10.938-10.264,15.197c-4.457,4.281-9.696,7.617-15.744,10.021
	c-6.048,2.399-12.804,3.61-20.279,3.61c-29.164,0-46.955-20.371-53.365-61.104l-64.027,0 c 1.598,17.44, 5.56,33.211, 11.876,47.353
	c 6.313,14.15, 14.576,26.151, 24.813,36.028c 10.231,9.876, 22.146,17.47, 35.754,22.796c 13.6,5.34, 28.409,8.012, 44.419,8.012
	c 17.080,0, 32.642-2.441, 46.696-7.332c 14.057-4.899, 26.104-11.709, 36.146-20.42c 10.057-8.713, 17.872-19.119, 23.482-31.211
	c 5.591-12.104, 8.411-25.261, 8.411-39.484C 371.804,320.454, 370.546,311.424, 368.064,302.971z" data-tags="help, question, support, ask" />
<glyph unicode="&#xe090;" d="M 256,480C 114.615,480,0,365.385,0,224s 114.613-256, 256-256c 141.385,0, 256,114.615, 256,256S 397.385,480, 256,480z M 256,0
			C 132.288,0, 32,100.288, 32,224S 132.288,448, 256,448s 224-100.288, 224-224S 379.712,0, 256,0zM 224,128L 288,128L 288,64L 224,64zM 352,352L 160,352 l0-64 l 160,0 l0-32 l-96-64l0-32 l 64,0 l 96,64l0,96 C 384,337.673, 369.673,352, 352,352z" data-tags="help, question" />
<glyph unicode="&#xe091;" d="M0,224c0-141.385, 114.615-256, 256-256c 141.386,0, 256,114.615, 256,256S 397.386,480, 256,480C 114.615,480,0,365.385,0,224z M 448,224
	c0-36.618-10.256-70.84-28.044-99.956L 156.045,387.956C 185.16,405.745, 219.382,416, 256,416C 362.038,416, 448,330.039, 448,224z M 64,224
	c0,36.618, 10.256,70.839, 28.045,99.956l 263.911-263.912C 326.839,42.255, 292.618,32, 256,32C 149.962,32, 64,117.961, 64,224z" data-tags="blocked, cancel, stop, forbidden, denied" />
<glyph unicode="&#xe092;" d="M 256,480C 114.615,480,0,365.385,0,224s 114.615-256, 256-256s 256,114.615, 256,256S 397.385,480, 256,480z M 392.897,136.884
	c 6.844-6.844, 6.844-18.044,0-24.89l-24.891-24.891c-6.846-6.844-18.046-6.844-24.89,0L 256,174.22l-87.115-87.116
	c-6.845-6.844-18.046-6.844-24.89,0l-24.891,24.891c-6.845,6.846-6.845,18.046,0,24.89L 206.22,224l-87.116,87.115
	c-6.845,6.845-6.845,18.046,0,24.89l 24.891,24.891c 6.844,6.845, 18.045,6.845, 24.89,0L 256,273.78l 87.116,87.116
	c 6.844,6.845, 18.044,6.845, 24.89,0l 24.891-24.891c 6.844-6.844, 6.844-18.045,0-24.89L 305.781,224L 392.897,136.884z" data-tags="cancel, close, quit, remove, error, cross" />
<glyph unicode="&#xe093;" d="M 507.331,68.67c-0.002,0.002-0.004,0.004-0.006,0.005L 352.003,224l 155.322,155.325c 0.002,0.002, 0.004,0.003, 0.006,0.005
		c 1.672,1.673, 2.881,3.627, 3.656,5.708c 2.123,5.688, 0.912,12.341-3.662,16.915L 433.952,475.326c-4.574,4.573-11.225,5.783-16.914,3.66
		c-2.080-0.775-4.035-1.984-5.709-3.655c0-0.002-0.002-0.003-0.004-0.005L 256.001,320L 100.677,475.325
		c-0.002,0.002-0.003,0.003-0.005,0.005c-1.673,1.671-3.627,2.88-5.707,3.655c-5.69,2.124-12.341,0.913-16.915-3.66L 4.676,401.951
		c-4.574-4.574-5.784-11.226-3.661-16.914c 0.776-2.080, 1.985-4.036, 3.656-5.708c 0.002-0.001, 0.003-0.003, 0.005-0.005L 160.001,224
		L 4.676,68.674c-0.001-0.002-0.003-0.003-0.004-0.005c-1.671-1.673-2.88-3.627-3.657-5.707c-2.124-5.688-0.913-12.341, 3.661-16.915
		l 73.374-73.373c 4.575-4.574, 11.226-5.784, 16.915-3.661c 2.080,0.776, 4.035,1.985, 5.708,3.656c 0.001,0.002, 0.003,0.003, 0.005,0.005
		l 155.324,155.325l 155.324-155.325c 0.002-0.001, 0.004-0.003, 0.006-0.004c 1.674-1.672, 3.627-2.881, 5.707-3.657
		c 5.689-2.123, 12.342-0.913, 16.914,3.661l 73.373,73.374c 4.574,4.574, 5.785,11.227, 3.662,16.915
		C 510.212,65.043, 509.003,66.997, 507.331,68.67z" data-tags="cancel, close, quit, remove, error, cross" />
<glyph unicode="&#xe094;" d="M 432,432L 192,192L 80,304L0,224L 192,32L 512,352 z" data-tags="checkmark, approve, tick, correct, accept, ok" />
<glyph unicode="&#xe095;" d="M0,272l0-96 c0-8.836, 7.164-16, 16-16l 480,0 c 8.836,0, 16,7.164, 16,16l0,96 c0,8.836-7.164,16-16,16L 16,288 C 7.164,288,0,280.836,0,272z" data-tags="minus, minimize" />
<glyph unicode="&#xe096;" d="M 496,288L 320,288 L 320,464 c0,8.836-7.164,16-16,16l-96,0 c-8.836,0-16-7.164-16-16l0-176 L 16,288 c-8.836,0-16-7.164-16-16l0-96 
	c0-8.836, 7.164-16, 16-16l 176,0 l0-176 c0-8.836, 7.164-16, 16-16l 96,0 c 8.836,0, 16,7.164, 16,16L 320,160 l 176,0 c 8.836,0, 16,7.164, 16,16l0,96 
	C 512,280.836, 504.836,288, 496,288z" data-tags="plus, add" />
<glyph unicode="&#xe097;" d="M 448,448L 96,448 c-17.6,0-32-14.4-32-32l0-128 l 64,0 L 128,384 l 288,0 l0-352 L 128,32 l0,96 L 64,128 l0-128 c0-17.6, 14.399-32, 32-32l 352,0 c 17.6,0, 32,14.4, 32,32L 480,416 
		C 480,433.6, 465.6,448, 448,448zM 192,64L 336,208L 192,352L 192,256L0,256L0,160L 192,160 	z" data-tags="enter, sign in, log in, login" />
<glyph unicode="&#xe098;" d="M 496,208L 352,352L 352,256L 160,256L 160,160L 352,160L 352,64 	zM 416,384L 416,416 c0,17.6-14.4,32-32,32L 32,448 C 14.4,448,0,433.6,0,416l0-416 c0-17.6, 14.399-32, 32-32l 352,0 c 17.6,0, 32,14.4, 32,32l0,32 L 64,32 L 64,384 
		L 416,384 z" data-tags="exit, sign out, log out, quit, close, logout" />
<glyph unicode="&#xe099;" d="M 160,160L 160,256L 256,256L 128,384L0,256L 96,256L 96,96L 288,96L 224,160 	zM 416,192L 416,352L 224,352L 288,288L 352,288L 352,192L 256,192L 384,64L 512,192 	z" data-tags="loop, repeat, reload, refresh, update, upgrade, synchronize, media control, control" />
<glyph unicode="&#xe09a;" d="M0,96L 128,224L 384-32L 512,96L 256,352L 383.999,480L0,480 z" data-tags="arrow-up-left, up, left, arrow, top left, up left" />
<glyph unicode="&#xe09b;" d="M 256.001,480L0,224L 160,224L 160-31.999L 352-32L 352,224L 512,224 z" data-tags="arrow-up, upload, top" />
<glyph unicode="&#xe09c;" d="M 128,480L 256.001,352L0,96L 128-32L 384,224L 512,96.001L 512,480 z" data-tags="arrow-up-right, up, right, arrow, top right, up right" />
<glyph unicode="&#xe09d;" d="M 512,224L 256,480L 256,320L 0.001,320L0,128L 256,128L 256-32 z" data-tags="arrow-right, right, next" />
<glyph unicode="&#xe09e;" d="M 512,352L 384,224L 128,480L0,352L 256.001,96L 128.001-32L 512-32 z" data-tags="arrow-down-right, down, right, arrow, bottom right, down right" />
<glyph unicode="&#xe09f;" d="M 256-32L 512,224L 352,224L 352,479.999L 160,480L 160,224L0,224 z" data-tags="arrow-down, download, bottom" />
<glyph unicode="&#xe0a0;" d="M 384-32L 256,96L 512,352L 384,480L 128,223.999L0,351.999L0-32 z" data-tags="arrow-down-left, down, left, arrow, bottom left, down left" />
<glyph unicode="&#xe0a1;" d="M0,224L 256-32L 256,128L 511.999,128L 512,320L 256,320L 256,480 z" data-tags="arrow-left, left, previous" />
<glyph unicode="&#xe0a2;" d="M0,480L0,192L 96,288L 512-32L 192,384L 285.309,480 z" data-tags="arrow-up-left, up, left, arrow, top left, up left" />
<glyph unicode="&#xe0a3;" d="M 256.002-32L 200,352L 96,352L 255.999,480L 416,352L 311.999,352 z" data-tags="arrow-up, upload, top" />
<glyph unicode="&#xe0a4;" d="M 512,480L 224,480L 320,384L0-32L 416,288L 512,194.691 z" data-tags="arrow-up-right, up, right, arrow, top right, up right" />
<glyph unicode="&#xe0a5;" d="M0,223.998L 384,280L 384,384L 512,224.001L 384,64L 384,168.001 z" data-tags="arrow-right, right, next" />
<glyph unicode="&#xe0a6;" d="M 512-32L 512,256L 416.001,160L0,480L 320,64L 226.692-32 z" data-tags="arrow-down-right, down, right, arrow, bottom right, down right" />
<glyph unicode="&#xe0a7;" d="M 255.998,480L 312,96L 416,96L 256.001-32L 96,96L 200.001,96 z" data-tags="arrow-down, download, bottom" />
<glyph unicode="&#xe0a8;" d="M0-32L 288-32L 192,64L 512,480L 96,160L0,253.308 z" data-tags="arrow-down-left, down, left, arrow, bottom left, down left" />
<glyph unicode="&#xe0a9;" d="M 512,224.002L 128,168L 128,64L0,223.999L 128,384L 128,279.999 z" data-tags="arrow-left, left, previous" />
<glyph unicode="&#xe0aa;" d="M 32,448L 32,128L 128,32L 128,256L 384,0L 480,96L 224,352L 448,352L 352,448 z" data-tags="arrow-up-left, up, left, arrow, top left, up left" />
<glyph unicode="&#xe0ab;" d="M 32,256L 32,128L 192,288L 192-32L 320-32L 320,288L 480,128L 480,256L 256,480 z" data-tags="arrow-up, upload, top" />
<glyph unicode="&#xe0ac;" d="M 480,448L 160,448L 64,352L 288,352L 32,96L 128,0L 384,256L 384,32L 480,128 z" data-tags="arrow-up-right, up, right, arrow, top right, up right" />
<glyph unicode="&#xe0ad;" d="M 288,448L 160,448L 320,288L0,288L0,160L 320,160L 160,0L 288,0L 512,224 z" data-tags="arrow-right, right, next" />
<glyph unicode="&#xe0ae;" d="M 480,0L 480,320L 384,416L 384,192L 128,448L 32,352L 288,96L 64.001,96L 160.001,0 z" data-tags="arrow-down-right, down, right, arrow, bottom right, down right" />
<glyph unicode="&#xe0af;" d="M 480,192L 480,320L 320,160L 320,480L 192,480L 192.001,159.999L 32,320L 32,191.999L 256.001-32 z" data-tags="arrow-down, download, bottom" />
<glyph unicode="&#xe0b0;" d="M 32,0L 352,0L 448,96L 224,96L 480,352L 384,448L 128,192L 128,416L 32,320 z" data-tags="arrow-down-left, down, left, arrow, bottom left, down left" />
<glyph unicode="&#xe0b1;" d="M 224,0L 352,0L 192,160L 512,160L 512,288L 192,288L 352,448L 224,448L0,224 z" data-tags="arrow-left, left, previous" />
<glyph unicode="&#xe0b2;" d="M 512,256L 256,480L0,256l 186.225,0 L 128-32l 256,0 l-58.226,288L 512,256 z M 346.226,0L 165.775,0 L 224,288L 85.167,288 L 256,437.479L 426.834,288
	L 288,288 L 346.226,0z" data-tags="arrow-up, upload, top" />
<glyph unicode="&#xe0b3;" d="M 288-32l 224,256L 288,480l0-186.225 L0,352l0-256 l 288,58.227L 288-32 z M 32,133.774L 32,314.226 L 320,256L 320,394.833 L 469.479,224L 320,53.166L 320,192 
	L 32,133.774z" data-tags="arrow-right, right, next" />
<glyph unicode="&#xe0b4;" d="M0,192l 256-224l 256,224L 325.776,192 L 384,480L 128,480 l 58.227-288L0,192 z M 165.775,448l 180.451,0 L 288,160l 138.833,0 L 256,10.521L 85.166,160L 224,160 
	L 165.775,448z" data-tags="arrow-down, download, bottom" />
<glyph unicode="&#xe0b5;" d="M 224,480L0,224l 224-256L 224,154.226 l 288-58.225L 512,352 l-288-58.227L 224,480 z M 480,314.226l0-180.45 l-288,58.226l0-138.833 L 42.522,224
	L 192,394.834L 192,256 L 480,314.226z" data-tags="arrow-left, left, arrow, previous, backward" />
<glyph unicode="&#xe0b6;" d="M 256,480L 32-32L 256,64L 480-32 z" data-tags="arrow-up, upload, top" />
<glyph unicode="&#xe0b7;" d="M 512,224L0,448L 96,224L0,0 z" data-tags="arrow-right, right, next" />
<glyph unicode="&#xe0b8;" d="M 256-32L 480,480L 256,384L 32,480 z" data-tags="arrow-down, download, bottom" />
<glyph unicode="&#xe0b9;" d="M0,224L 512,0L 416,224L 512,448 z" data-tags="arrow-left, left, previous" />
<glyph unicode="&#xe0ba;" d="M 128,256L 128,192.001L 224,288L 224,96.001L 288,96L 288.001,288L 384.001,192L 384.001,256L 256.001,384 	zM0,224c0-141.384, 114.615-255.999, 256-256c 141.385,0, 256,114.615, 256,256c 0.001,141.385-114.614,256-256,256
		S0,365.385,0,224z M 480.001,224C 480,100.288, 379.712,0, 256,0C 132.288,0.001, 32,100.289, 32,224c0,123.712, 100.288,224, 224,224
		S 480.001,347.712, 480.001,224z" data-tags="arrow-up, upload, top" />
<glyph unicode="&#xe0bb;" d="M 288,352L 224,352L 320,256L 128,256L 128,192L 320,192L 224,96L 288,96L 416,224 	zM 256,480C 114.615,480,0,365.385,0,224s 114.615-256, 256-256s 256,114.615, 256,256S 397.385,480, 256,480z M 256,0
		C 132.288,0, 32,100.288, 32,224S 132.288,448, 256,448s 224-100.288, 224-224S 379.712,0, 256,0z" data-tags="arrow-right, right, next" />
<glyph unicode="&#xe0bc;" d="M 384,192L 384,256L 288,160L 288,352L 224,352L 224,160L 128,256L 128,192L 256,64 	zM 512,224C 512,365.385, 397.385,480, 256,480S0,365.385,0,224s 114.615-256, 256-256S 512,82.615, 512,224z M 32,224
		C 32,347.712, 132.288,448, 256,448s 224-100.288, 224-224S 379.712,0, 256,0S 32,100.288, 32,224z" data-tags="arrow-down, download, bottom" />
<glyph unicode="&#xe0bd;" d="M 224,96L 288,96L 192,192L 384,192L 384,256L 192,256L 288,352L 224,352L 96,224 	zM 256-32c 141.385,0, 256,114.615, 256,256S 397.385,480, 256,480C 114.615,480,0,365.385,0,224C0,82.615, 114.615-32, 256-32z
		 M 256,448c 123.712,0, 224-100.289, 224-224S 379.712,0, 256,0S 32,100.288, 32,224C 32,347.712, 132.288,448, 256,448z" data-tags="arrow-left, left, previous" />
<glyph unicode="&#xe0be;" d="M 384,256L 256,384L 128,256 	zM 128,160L 256,32L 384,160 	z" data-tags="menu, arrow, options, select" />
<glyph unicode="&#xe0bf;" d="M 512,448L 416,448L 416,224L 176,224L 256,304L 192,368L0,176L 192-16L 256,48L 176,128L 512,128 z" data-tags="enter, arrow, return" />
<glyph unicode="&#xe0c0;" d="M 160,384L0,224l 160-160l 352,0 L 512,384 L 160,384 z M 480,96L 173.255,96 l-128,128l 128,128L 480,352 L 480,96 zM 288,128L 352,192L 416,128L 448,160L 384,224L 448,288L 416,320L 352,256L 288,320L 256,288L 320,224L 256,160 	z" data-tags="backspace, delete, remove" />
<glyph unicode="&#xe0c1;" d="M 160,384L0,224l 160-160l 352,0 L 512,384 L 160,384 z M 469.12,145.92l-39.040-39.040L 352,184.96l-78.080-78.080l-39.040,39.040L 312.96,224
	l-78.080,78.080l 39.040,39.040L 352,263.040l 78.080,78.080l 39.040-39.040L 391.040,224L 469.12,145.92z" data-tags="backspace, delete, remove" />
<glyph unicode="&#xe0c2;" d="M 352,192L 480,320L 352,448L 352,352L0,352L0,288L 352,288 	zM 160,160L 160,256L 32,128L 160,0L 160,96L 512,96L 512,160 	z" data-tags="tab, arrows" />
<glyph unicode="&#xe0c3;" d="M 352,384L0,384L0,320L 352,320L 352,224L 480,352L 352,480 	zM 480,480L 480,352L 480,224L 512,224L 512,480 	zM 160,224L 32,96L 160-32L 160,64L 512,64L 512,128L 160,128 	zM0,224L0-32L 32-32L 32,96L 32,224 	z" data-tags="tab, arrows" />
<glyph unicode="&#xe0c4;" d="M0,480l0-512 l 512,0 L 512,480 L0,480 z M 480,0L 32,0 L 32,448 l 448,0 L 480,0 zM 384,352L 224,192L 128,288L 64,224L 224,64L 448,288 	z" data-tags="checkbox, tick, selected, checked" />
<glyph unicode="&#xe0c5;" d="M0,480l0-512 l 512,0 L 512,480 L0,480 z M 480,0L 32,0 L 32,448 l 448,0 L 480,0 z" data-tags="checkbox-unchecked, unchecked" />
<glyph unicode="&#xe0c6;" d="M0,480l0-512 l 512,0 L 512,480 L0,480 z M 480,0L 32,0 L 32,448 l 448,0 L 480,0 zM 128,352L 384,352L 384,96L 128,96z" data-tags="checkbox-partial, partial" />
<glyph unicode="&#xe0c7;" d="M 256,480C 114.615,480,0,365.385,0,224s 114.615-256, 256-256s 256,114.615, 256,256S 397.385,480, 256,480z M 256,32
		c-106.039,0-192,85.961-192,192c0,106.039, 85.961,192, 192,192c 106.039,0, 192-85.961, 192-192C 448,117.961, 362.039,32, 256,32zM 160,224A96,96 10260 1 1 352,224A96,96 10260 1 1 160,224z" data-tags="radio-checked" />
<glyph unicode="&#xe0c8;" d="M 256,480C 114.615,480,0,365.385,0,224s 114.615-256, 256-256s 256,114.615, 256,256S 397.385,480, 256,480z M 256,32
	c-106.039,0-192,85.961-192,192c0,106.039, 85.961,192, 192,192c 106.039,0, 192-85.961, 192-192C 448,117.961, 362.039,32, 256,32z" data-tags="radio-unchecked" />
<glyph unicode="&#xe0c9;" d="M 399.798,471.896C 354.535,471.896, 325.488,480, 278.874,480C 128.232,480, 57.978,394.208, 57.978,307.064
	c0-51.339, 24.32-68.229, 72.282-68.229c-3.379,7.432-9.457,15.54-9.457,52.017c0,102.005, 38.503,131.729, 87.818,133.755
	c0,0-40.459-396.687-157.889-444.271L 50.732-32 l 84.359,0 l 73.938,0 l 54.013,256l 98.922,0 L 384,288L 276.546,288 l 25.972,123.095
	c 29.723-6.078, 58.771-12.158, 83.766-12.158c 31.074,0, 59.447,9.457, 74.984,81.063C 442.355,473.92, 422.087,471.896, 399.798,471.896z" data-tags="font, font family, text control" />
<glyph unicode="&#xe0ca;" d="M0,384L 512,384L 512,352L0,352zM0,320L 352,320L 352,288L0,288zM0,256L 512,256L 512,224L0,224zM0,192L 352,192L 352,160L0,160zM0,128L 512,128L 512,96L0,96zM0,64L 352,64L 352,32L0,32z" data-tags="paragraph-left, align left, left, text control" />
<glyph unicode="&#xe0cb;" d="M0,384L 512,384L 512,352L0,352zM 96,320L 416,320L 416,288L 96,288zM 96,192L 416,192L 416,160L 96,160zM 96,64L 416,64L 416,32L 96,32zM0,256L 512,256L 512,224L0,224zM0,128L 512,128L 512,96L0,96z" data-tags="paragraph-center, align center, center, text control" />
<glyph unicode="&#xe0cc;" d="M0,384L 512,384L 512,352L0,352zM 160,320L 512,320L 512,288L 160,288zM0,256L 512,256L 512,224L0,224zM 160,192L 512,192L 512,160L 160,160zM0,128L 512,128L 512,96L0,96zM 160,64L 512,64L 512,32L 160,32z" data-tags="paragraph-right, align right, right, text control" />
<glyph unicode="&#xe0cd;" d="M0,320L 512,320L 512,288L0,288zM0,192L 512,192L 512,160L0,160zM0,64L 512,64L 512,32L0,32zM0,384L 512,384L 512,352L0,352zM0,256L 512,256L 512,224L0,224zM0,128L 512,128L 512,96L0,96z" data-tags="paragraph-justify, text control, justify, _new" />
<glyph unicode="&#xe0ce;" d="M 256,480c-70.692,0-128-57.308-128-128s 57.308-128, 128-128l0-256 l 64,0 L 320,416 l 64,0 l0-448 l 64,0 L 448,416 l 64,0 L 512,480 L 256,480 zM0,128L 128,256L0,384 	z" data-tags="left to right, ltr, text control" />
<glyph unicode="&#xe0cf;" d="M 128,480C 57.308,480,0,422.692,0,352s 57.308-128, 128-128l0-256 l 64,0 L 192,416 l 64,0 l0-448 l 64,0 L 320,416 l 64,0 L 384,480 L 128,480 zM 512,384L 384,256L 512,128 	z" data-tags="right to left, rtl, text control" />
<glyph unicode="&#xe0d0;" d="M 128,160c0,0, 29.412,96, 192,96l0-96 l 192,128L 320,416l0-96 C 192,320, 128,240.164, 128,160zM 352,96L 64,96 L 64,288 l 62.938,0 c 5.047,5.959, 10.456,11.667, 16.244,17.090c 21.982,20.595, 48.281,36.326, 78.057,46.91L0,352 l0-320 l 416,0 
		L 416,166.312 l-64-42.667L 352,96 z" data-tags="share, out, external, outside" />
<glyph unicode="&#xe0d1;" d="M 320,448L 384,384L 160,160L 192,128L 416,352L 480,288L 480,448 	zM 352,64L 96,64L 96,320L 224,320L 288,384L 32,384L 32,0L 416,0L 416,256L 352,192 	z" data-tags="new tab, external, outside, link, blank" />
<glyph unicode="&#xe0d2;" d="M 96,448l0-384 l 384,0 L 480,448 L 96,448 z M 448,96L 128,96 L 128,416 l 320,0 L 448,96 zM 64,32L 64,352L 32,384L 32,0L 416,0L 384,32 	zM 214.627,137.373L 310.627,233.373L 384,160L 384,352L 192,352L 265.373,278.627L 169.373,182.627 	z" data-tags="new tab, external, outside, popout, link, blank, _new" />
<glyph unicode="&#xe0d3;" d="M 160,352L 32,224L 160,96L 224,96L 96,224L 224,352 	zM 352,352L 288,352L 416,224L 288,96L 352,96L 480,224 	z" data-tags="embed, code" />
<glyph unicode="&#xe0d4;" d="M 64,224L 192,352L 128,352L0,224L 128,96L 192,96 	zM 384,352L 320,352L 448,224L 320,96L 384,96L 512,224 	zM 272,416L 192,32L 240,32L 320,416 	z" data-tags="code, embed" />
<glyph unicode="&#xe0d5;" d="M 390.628,320L 256,455.553l0-192.925 L 155.314,363.314l-22.628-22.628L 249.372,224L 132.686,107.313l 22.628-22.627L 256,185.372
	l0-192.924 L 390.628,128l-96,96L 390.628,320z M 288,377.819L 345.372,320L 288,262.628L 288,377.819 z M 345.372,128L 288,70.181L 288,185.372 
	L 345.372,128z" data-tags="bluetooth" />
<glyph unicode="&#xe0d6;" d="M 432,128c-22.58,0-42.96-9.369-57.506-24.415L 158.992,211.336C 159.649,215.462, 160,219.689, 160,224
	s-0.351,8.538-1.008,12.663l 215.502,107.751C 389.040,329.369, 409.42,320, 432,320c 44.183,0, 80,35.817, 80,80S 476.183,480, 432,480
	s-80-35.817-80-80c0-4.311, 0.352-8.538, 1.008-12.663L 137.506,279.585C 122.96,294.63, 102.58,304, 80,304c-44.183,0-80-35.818-80-80
	c0-44.184, 35.817-80, 80-80c 22.58,0, 42.96,9.369, 57.506,24.414l 215.502-107.751C 352.352,56.538, 352,52.311, 352,48
	c0-44.184, 35.817-80, 80-80s 80,35.816, 80,80C 512,92.182, 476.183,128, 432,128z" data-tags="share" />
<glyph unicode="&#xe0d7;" d="M 192,224A64,64 10260 1 1 320,224A64,64 10260 1 1 192,224zM 256,352c 35.346,0, 67.346-14.327, 90.51-37.49l 45.255,45.255C 357.020,394.51, 309.020,416, 256,416
		c-83.596,0-154.7-53.431-181.060-128L0,288 l0-64 l 128,0 C 128,294.692, 185.308,352, 256,352zM 384,224c0-70.692-57.308-128-128-128c-35.346,0-67.346,14.327-90.51,37.49l-45.255-45.255
		C 154.981,53.49, 202.981,32, 256,32c 83.596,0, 154.7,53.431, 181.060,128L 512,160 l0,64 L 384,224 z" data-tags="share" />
<glyph unicode="&#xe0d8;" d="M 426.655,480L 85.345,480 C 38.405,480,0,441.608,0,394.671l0-341.328 C0,6.405, 38.405-32, 85.345-32l 341.311,0 
	C 473.625-32, 512,6.405, 512,53.343L 512,394.671 C 512,441.608, 473.625,480, 426.655,480z M 128,352l 256,0 c 4.569,0, 9.002-0.981, 13.072-2.831
	L 256,184.585L 114.928,349.17C 118.998,351.018, 123.431,352, 128,352z M 96,128L 96,320 c0,0.67, 0.028,1.336, 0.070,2l 93.832-109.47
	L 97.103,119.73C 96.381,122.399, 96,125.173, 96,128z M 384,96L 128,96 c-2.827,0-5.601,0.381-8.27,1.103l 91.059,91.059L 256,135.414
	l 45.212,52.747l 91.058-91.059C 389.6,96.381, 386.827,96, 384,96z M 416,128c0-2.827-0.381-5.6-1.103-8.27l-92.799,92.799L 415.93,322
	c 0.042-0.664, 0.070-1.33, 0.070-2L 416,128 z" data-tags="mail, contact, support, newsletter, letter, email, envelop, social" />
<glyph unicode="&#xe0d9;" d="M 426.671,480L 85.343,480 C 38.406,480,0,441.595,0,394.655l0-341.311 C0,6.375, 38.406-32, 85.343-32l 341.328,0 
	C 473.609-32, 512,6.375, 512,53.345L 512,394.655 C 512,441.595, 473.609,480, 426.671,480z M 91.314,36.687l-38.628,38.627l 128,128
	l 14.628-14.627L 91.314,36.687z M 76.686,380.686l 14.628,14.628L 256,262.627L 420.687,395.314l 14.627-14.628L 256,169.373L 76.686,380.686z
	 M 420.687,36.687l-104,152l 14.627,14.627l 128-128L 420.687,36.687z" data-tags="mail, contact, support, newsletter, letter, email, envelop, social, _new" />
<glyph unicode="&#xe0da;" d="M 256,480C 114.615,480,0,365.385,0,224s 114.615-256, 256-256s 256,114.615, 256,256S 397.385,480, 256,480z M 128,352l 256,0 
	c 4.569,0, 9.002-0.981, 13.072-2.831L 256,184.585L 114.928,349.17C 118.998,351.018, 123.431,352, 128,352z M 96,128L 96,320 
	c0,0.67, 0.028,1.336, 0.070,2l 93.832-109.471L 97.103,119.73C 96.381,122.398, 96,125.173, 96,128z M 384,96L 128,96 
	c-2.827,0-5.601,0.381-8.27,1.104l 91.059,91.059L 256,135.414l 45.212,52.747l 91.058-91.060C 389.6,96.381, 386.827,96, 384,96z
	 M 416,128c0-2.827-0.381-5.6-1.103-8.27l-92.8,92.799L 415.93,322c 0.042-0.664, 0.070-1.33, 0.070-2L 416,128 z" data-tags="mail, contact, support, newsletter, letter, email, envelop, social" />
<glyph unicode="&#xe0db;" d="M 394.767,448c0,0-100.478,0-133.97,0c-60.061,0-116.585-45.503-116.585-98.211c0-53.863, 40.941-97.333, 102.044-97.333
	c 4.249,0, 8.378,0.085, 12.42,0.376c-3.964-7.593-6.8-16.144-6.8-25.021c0-14.969, 8.052-27.105, 18.234-37.012
	c-7.693,0-15.121-0.224-23.226-0.224c-74.391,0.001-131.65-47.38-131.65-96.511c0-48.389, 62.771-78.656, 137.167-78.656
	c 84.812,0, 131.653,48.122, 131.653,96.514c0,38.801-11.448,62.036-46.843,87.067c-12.108,8.571-35.266,29.418-35.266,41.672
	c0,14.36, 4.098,21.434, 25.714,38.323c 22.156,17.312, 37.837,41.651, 37.837,69.958c0,33.703-15.011,66.549-43.187,77.386l 42.478,0 
	L 394.767,448z M 347.974,120.271c 1.063-4.486, 1.642-9.104, 1.642-13.814c0-39.1-25.195-69.655-97.487-69.655
	c-51.421,0-88.558,32.552-88.558,71.65c0,38.321, 46.063,70.222, 97.482,69.666c 12-0.127, 23.184-2.058, 33.334-5.345
	C 322.301,153.359, 342.325,142.393, 347.974,120.271z M 265.643,266.112c-34.519,1.032-67.318,38.613-73.276,83.93
	c-5.958,45.333, 17.185,80.021, 51.694,78.995C 278.565,428, 311.379,391.63, 317.34,346.308
	C 323.293,300.978, 300.145,265.079, 265.643,266.112z" data-tags="google, _new" />
<glyph unicode="&#xe0dc;" d="M 279.533,448c0,0-100.478,0-133.97,0C 85.503,448, 28.978,402.497, 28.978,349.789c0-53.863, 40.941-97.333, 102.044-97.333
		c 4.249,0, 8.378,0.085, 12.421,0.376c-3.965-7.593-6.801-16.144-6.801-25.021c0-14.969, 8.052-27.105, 18.234-37.012
		c-7.693,0-15.121-0.224-23.226-0.224C 57.259,190.576,0,143.196,0,94.065c0-48.389, 62.771-78.657, 137.167-78.657
		c 84.812,0, 131.653,48.122, 131.653,96.514c0,38.8-11.448,62.036-46.843,87.067c-12.108,8.572-35.265,29.418-35.265,41.672
		c0,14.36, 4.098,21.434, 25.714,38.323c 22.156,17.312, 37.836,41.651, 37.836,69.958c0,33.703-15.010,66.549-43.186,77.386l 42.477,0 
		L 279.533,448z M 232.74,120.271c 1.063-4.486, 1.642-9.103, 1.642-13.814c0-39.1-25.196-69.655-97.487-69.655
		c-51.421,0-88.558,32.552-88.558,71.65c0,38.321, 46.063,70.222, 97.482,69.666c 12-0.127, 23.184-2.058, 33.335-5.345
		C 207.067,153.36, 227.092,142.392, 232.74,120.271z M 150.409,266.112c-34.519,1.032-67.318,38.613-73.276,83.93
		c-5.958,45.333, 17.185,80.021, 51.694,78.995c 34.505-1.037, 67.319-37.407, 73.279-82.729
		C 208.059,300.978, 184.911,265.079, 150.409,266.112zM 416,352L 416,448L 384,448L 384,352L 288,352L 288,320L 384,320L 384,224L 416,224L 416,320L 512,320L 512,352 	z" data-tags="google plus, social" />
<glyph unicode="&#xe0dd;" d="M 426.756,480L 84.621,480 C 37.571,480,0,441.107,0,394.061l0-340.176 C0,5.674, 37.571-32, 84.621-32l 342.134,0 
	C 473.803-32, 512,5.674, 512,53.885L 512,394.061 C 512,441.107, 473.803,480, 426.756,480z M 352,464l0-80 l-80,0 L 272,464 L 352,464 z M 240,464l0-80 l-80,0 L 160,464 L 240,464 z
	 M 16,384L 16,394.061 C 16,432.625, 46.783,464, 84.621,464L 128,464 l0-80 L 16,384 z M 384,160l-96,0 l0-96 l-64,0 l0,96 l-96,0 l0,64 l 96,0 l0,96 l 64,0 l0-96 l 96,0 L 384,160 z M 496,384L 384,384 L 384,464 
	l 42.756,0 C 464.938,464, 496,432.625, 496,394.061L 496,384 z" data-tags="google plus, social" />
</font>
</defs>
</svg>
